<svg width="18" height="20" viewBox="0 0 18 20" fill="none" xmlns="http://www.w3.org/2000/svg">
<path d="M7.875 10.125H9.375V15M0.75 6.75H17.25M12.75 3.75V0.75M5.25 3.75V0.75M2.25 18.75H15.75C16.1478 18.75 16.5294 18.592 16.8107 18.3107C17.092 18.0294 17.25 17.6478 17.25 17.25V3.75C17.25 3.35218 17.092 2.97064 16.8107 2.68934C16.5294 2.40804 16.1478 2.25 15.75 2.25H2.25C1.85218 2.25 1.47064 2.40804 1.18934 2.68934C0.908035 2.97064 0.75 3.35218 0.75 3.75V17.25C0.75 17.6478 0.908035 18.0294 1.18934 18.3107C1.47064 18.592 1.85218 18.75 2.25 18.75Z" stroke="#F1E2D2" stroke-width="1.5" stroke-linecap="round" stroke-linejoin="round"/>
</svg>
