<svg width="13" height="15" viewBox="0 0 13 15" fill="none" xmlns="http://www.w3.org/2000/svg">
<path d="M1.84412 1.84545C2.42914 1.26038 3.12367 0.796265 3.88806 0.479621C4.65246 0.162976 5.47174 0 6.29912 0C7.1265 0 7.94578 0.162976 8.71017 0.479621C9.47457 0.796265 10.1691 1.26038 10.7541 1.84545C11.9358 3.02784 12.5996 4.63107 12.5996 6.3027C12.5996 7.97434 11.9358 9.57757 10.7541 10.76L9.73892 11.7626L7.54742 13.8956C7.2326 14.2002 6.8172 14.3792 6.37954 14.3988C5.94187 14.4183 5.51216 14.2771 5.17142 14.0018L5.05172 13.8956L3.21302 12.1091L1.84502 10.76C0.663622 9.57761 0 7.97457 0 6.30316C0 4.63174 0.663622 3.0287 1.84502 1.84635M6.29912 4.05046C5.70238 4.05046 5.13009 4.28751 4.70813 4.70946C4.28617 5.13142 4.04912 5.70372 4.04912 6.30046C4.04912 6.89719 4.28617 7.46949 4.70813 7.89145C5.13009 8.3134 5.70238 8.55046 6.29912 8.55046C6.89586 8.55046 7.46815 8.3134 7.89011 7.89145C8.31207 7.46949 8.54912 6.89719 8.54912 6.30046C8.54912 5.70372 8.31207 5.13142 7.89011 4.70946C7.46815 4.28751 6.89586 4.05046 6.29912 4.05046Z" fill="#F1E2D2"/>
</svg>
