<svg width="13" height="13" viewBox="0 0 13 13" fill="none" xmlns="http://www.w3.org/2000/svg">
<path d="M8.13145 6.32919C8.10479 6.36475 8.10479 6.41363 8.13145 6.44919L12.7574 12.6174C12.8267 12.7099 12.7099 12.8267 12.6174 12.7574L6.44919 8.13145C6.41363 8.10479 6.36474 8.10479 6.32919 8.13145L0.16102 12.7574C0.0685088 12.8267 -0.0483595 12.7099 0.0210204 12.6174L4.64693 6.44919C4.67359 6.41363 4.67359 6.36474 4.64693 6.32919L0.0210203 0.16102C-0.0483596 0.0685088 0.068509 -0.0483595 0.16102 0.0210204L6.32919 4.64693C6.36475 4.67359 6.41363 4.67359 6.44919 4.64693L12.6174 0.0210203C12.7099 -0.0483596 12.8267 0.068509 12.7574 0.16102L8.13145 6.32919ZM6.38919 5.7886C6.05782 5.7886 5.7886 6.05782 5.7886 6.38919C5.78867 6.7205 6.05786 6.9888 6.38919 6.9888C6.72046 6.98873 6.98873 6.72046 6.9888 6.38919C6.9888 6.05786 6.7205 5.78867 6.38919 5.7886Z" fill="#F1E2D2"/>
</svg>
