<svg width="16" height="16" viewBox="0 0 16 16" fill="none" xmlns="http://www.w3.org/2000/svg">
<path d="M8 0C12.4183 0 16 3.58172 16 8C16 12.4183 12.4183 16 8 16C3.58172 16 0 12.4183 0 8C0 3.58172 3.58172 0 8 0ZM11.2705 4.81641C10.9697 4.82124 10.5083 4.98156 8.28613 5.90625C7.50836 6.22953 5.95339 6.90024 3.62109 7.91602C3.24387 8.06628 3.04524 8.21293 3.02734 8.3584C2.99214 8.6336 3.3908 8.72059 3.8916 8.88379C4.29958 9.01657 4.84842 9.17134 5.13477 9.17773C5.3939 9.18409 5.68205 9.07751 6.00195 8.8584C8.17805 7.39009 9.30268 6.64598 9.37598 6.62793C9.42718 6.61673 9.49657 6.60195 9.54297 6.64355C9.58908 6.68511 9.58389 6.76322 9.5791 6.78418C9.53915 6.95358 7.49782 8.81193 7.375 8.9375C6.9238 9.4047 6.41175 9.69191 7.20215 10.2119C7.88502 10.6629 8.28361 10.9505 8.9873 11.4111C9.4369 11.7055 9.79088 12.0569 10.2549 12.0137C10.4692 11.9928 10.6898 11.7922 10.8018 11.1924C11.0658 9.77481 11.587 6.70608 11.707 5.44043C11.7182 5.33003 11.7039 5.1874 11.6943 5.125C11.6847 5.06262 11.6625 4.9747 11.5811 4.90918C11.4851 4.83238 11.3361 4.81481 11.2705 4.81641Z" fill="#F1E2D2"/>
</svg>
