<svg width="33" height="33" viewBox="0 0 33 33" fill="none" xmlns="http://www.w3.org/2000/svg">
<path d="M16.5 0C25.6127 0 33 7.3873 33 16.5C33 25.6127 25.6127 33 16.5 33C7.3873 33 0 25.6127 0 16.5C0 7.3873 7.3873 0 16.5 0ZM23.2451 9.93359C22.6247 9.9436 21.6738 10.2746 17.0908 12.1816C15.487 12.8483 12.279 14.2308 7.46777 16.3262C6.68922 16.6363 6.28047 16.94 6.24414 17.2402C6.17155 17.8077 6.99273 17.9858 8.02539 18.3223C8.86685 18.5962 9.99912 18.9165 10.5898 18.9297C11.1244 18.9429 11.7189 18.7216 12.3789 18.2695C16.8693 15.2397 19.189 13.7055 19.3379 13.6699C19.4435 13.6468 19.5859 13.6173 19.6816 13.7031C19.777 13.789 19.7677 13.9503 19.7578 13.9932C19.6752 14.343 15.4557 18.1824 15.21 18.4346C14.2794 19.3982 13.2234 19.989 14.8535 21.0615C16.2626 21.9921 17.0841 22.5867 18.5361 23.5371C19.4634 24.1443 20.1934 24.8664 21.1504 24.7773C21.5924 24.7342 22.0474 24.3217 22.2783 23.085C22.8228 20.1612 23.899 13.831 24.1465 11.2207C24.1695 10.9933 24.1399 10.7001 24.1201 10.5713C24.1003 10.4426 24.054 10.2603 23.8857 10.125C23.6877 9.9667 23.3804 9.93029 23.2451 9.93359Z" fill="#DE4300"/>
</svg>
