<svg width="48" height="29" viewBox="0 0 48 29" fill="none" xmlns="http://www.w3.org/2000/svg">
<path d="M46.906 1.964C46.366 3.662 45.638 5.14 44.726 6.482L44.764 6.422C43.868 7.91533 42.798 9.64067 41.554 11.598C40.4873 13.1433 39.9227 13.9433 39.86 13.998C39.584 14.344 39.392 14.768 39.326 15.234L39.324 15.248C39.378 15.672 39.574 16.042 39.86 16.318L40.66 17.21C44.94 21.6087 47.3473 24.6407 47.882 26.306C47.952 26.49 47.992 26.702 47.992 26.924C47.992 27.312 47.868 27.67 47.658 27.964L47.662 27.958C47.31 28.32 46.818 28.544 46.274 28.544C46.214 28.544 46.152 28.542 46.094 28.536H46.102H40.84C40.838 28.536 40.834 28.536 40.83 28.536C40.156 28.536 39.536 28.3 39.05 27.908L39.056 27.912C38.348 27.33 37.718 26.7 37.154 26.016L37.136 25.992C36.2147 24.9507 35.3973 24.074 34.684 23.362C32.308 21.1033 30.5547 19.974 29.424 19.974C29.382 19.97 29.334 19.968 29.284 19.968C28.954 19.968 28.646 20.07 28.392 20.244L28.398 20.24C28.19 20.5 28.064 20.836 28.064 21.198C28.064 21.27 28.068 21.338 28.078 21.408V21.4C28.024 22.028 27.992 22.758 27.992 23.496C27.992 23.734 27.996 23.97 28.002 24.206V24.172V26.49C28.022 26.584 28.034 26.692 28.034 26.802C28.034 27.286 27.814 27.718 27.47 28.004L27.468 28.006C26.694 28.36 25.79 28.568 24.836 28.568C24.632 28.568 24.432 28.558 24.234 28.54L24.26 28.542C21.112 28.482 18.192 27.56 15.71 26.006L15.78 26.046C12.758 24.21 10.254 21.82 8.346 18.996L8.292 18.912C6.48 16.508 4.79 13.792 3.35 10.928L3.21 10.62C2.368 9.016 1.496 7.044 0.744 5.016L0.624 4.646C0.318 3.734 0.096 2.674 0.004 1.576L0 1.526C0 0.515333 0.594667 0.0100002 1.784 0.0100002H7.044C7.092 0.00600023 7.148 0.00399971 7.206 0.00399971C7.702 0.00399971 8.16 0.174 8.522 0.46L8.518 0.456C8.918 0.894 9.214 1.432 9.36 2.032L9.366 2.056C10.334 4.79 11.36 7.086 12.54 9.286L12.406 9.012C13.37 10.952 14.436 12.622 15.652 14.164L15.606 14.102C16.6727 15.4113 17.5047 16.066 18.102 16.066C18.12 16.068 18.142 16.068 18.166 16.068C18.462 16.068 18.72 15.908 18.86 15.668L18.862 15.664C19.01 15.284 19.096 14.842 19.096 14.382C19.096 14.284 19.092 14.186 19.084 14.09V14.102V6.344C19.042 5.43 18.818 4.576 18.444 3.81L18.46 3.848C18.212 3.32 17.914 2.864 17.56 2.458L17.566 2.466C17.238 2.138 17.014 1.708 16.944 1.228L16.942 1.216C16.942 0.876 17.098 0.57 17.342 0.37L17.344 0.368C17.586 0.146 17.91 0.0120001 18.264 0.0120001H18.28H26.572C26.616 0.00600008 26.666 0.00399971 26.718 0.00399971C27.108 0.00399971 27.458 0.18 27.69 0.456L27.692 0.458C27.898 0.834 28.02 1.284 28.02 1.76C28.02 1.836 28.016 1.91 28.01 1.984V1.974V12.32C28.006 12.368 28.004 12.424 28.004 12.48C28.004 12.848 28.106 13.194 28.282 13.488L28.278 13.48C28.424 13.696 28.668 13.836 28.944 13.836C29.296 13.812 29.618 13.696 29.888 13.512L29.882 13.516C30.426 13.142 30.894 12.716 31.3 12.234L31.308 12.224C32.522 10.852 33.642 9.336 34.618 7.724L34.696 7.584C35.384 6.444 36.128 5.04 36.802 3.598L36.926 3.304L37.818 1.52C38.128 0.627999 38.96 0 39.938 0C39.976 0 40.014 -1.45053e-07 40.052 0.00199986H40.046H45.308C46.7293 0.00199986 47.2627 0.656 46.908 1.964H46.906Z" fill="#DE4300"/>
</svg>
