<svg width="16" height="16" viewBox="0 0 16 16" fill="none" xmlns="http://www.w3.org/2000/svg">
<path fill-rule="evenodd" clip-rule="evenodd" d="M13.6687 2.32506C12.178 0.831716 10.1487 -0.00558474 8.03361 2.80376e-05C3.64226 2.80376e-05 0.0683754 3.55638 0.0668477 7.92778C0.0649721 9.31904 0.431791 10.6862 1.1303 11.8913L0 16L4.22326 14.8976C5.39122 15.5309 6.7001 15.8628 8.0302 15.8628H8.03361C12.4242 15.8628 15.9984 12.306 16 7.93465C16.0068 5.82997 15.1673 3.81006 13.6687 2.32506ZM11.6655 9.58638C11.4665 9.48715 10.4879 9.00822 10.3053 8.94013C10.1227 8.87211 9.99015 8.84091 9.85761 9.03936C9.72507 9.23782 9.34347 9.68374 9.22735 9.81605C9.11122 9.94829 8.9951 9.96462 8.79602 9.86546C8.59701 9.76623 7.95568 9.55711 7.19515 8.88238C6.60344 8.35697 6.20197 7.70845 6.08737 7.50999C5.97277 7.31154 6.07515 7.20584 6.17485 7.10548C6.26423 7.01692 6.37386 6.87435 6.47318 6.75845C6.57249 6.64248 6.60611 6.56037 6.67216 6.42808C6.7383 6.29578 6.7054 6.18021 6.65574 6.08099C6.60611 5.98177 6.20769 5.00667 6.04191 4.61017C5.88033 4.22393 5.71646 4.27601 5.59422 4.26803C5.47963 4.26233 5.34516 4.26119 5.21224 4.26119C5.00825 4.2665 4.81577 4.35635 4.68127 4.50905C4.49906 4.70749 3.98491 5.18648 3.98491 6.16159C3.98491 7.13669 4.69808 8.07869 4.79739 8.21099C4.89671 8.3433 6.2012 10.3441 8.19711 11.2024C8.56779 11.3616 8.94658 11.5011 9.33201 11.6206C9.8087 11.7727 10.2426 11.7503 10.5856 11.6993C10.9677 11.6423 11.7634 11.2199 11.9295 10.7572C12.0957 10.2947 12.0953 9.89774 12.0441 9.81525C11.9929 9.73276 11.8645 9.68715 11.6655 9.58792V9.58638Z" fill="#F1E2D2"/>
</svg>
