<svg width="33" height="33" viewBox="0 0 33 33" fill="none" xmlns="http://www.w3.org/2000/svg">
<path fill-rule="evenodd" clip-rule="evenodd" d="M28.1917 4.79543C25.1171 1.71541 20.9317 -0.0115185 16.5693 5.78275e-05C7.51216 5.78275e-05 0.141024 7.33504 0.137873 16.351C0.134005 19.2205 0.89057 22.0402 2.33125 24.5258L0 33L8.71048 30.7262C11.1194 32.0326 13.819 32.7169 16.5623 32.7169H16.5693C25.6249 32.7169 32.9967 25.3812 32.9999 16.3652C33.014 12.0243 31.2826 7.85825 28.1917 4.79543ZM24.0602 19.7719C23.6497 19.5673 21.6313 18.5795 21.2547 18.439C20.8781 18.2987 20.6047 18.2344 20.3313 18.6437C20.058 19.053 19.2709 19.9727 19.0314 20.2456C18.7919 20.5183 18.5524 20.552 18.1418 20.3475C17.7313 20.1429 16.4086 19.7115 14.84 18.3199C13.6196 17.2362 12.7916 15.8987 12.5552 15.4894C12.3188 15.08 12.53 14.862 12.7356 14.6551C12.92 14.4724 13.1461 14.1783 13.3509 13.9393C13.5558 13.7001 13.6251 13.5308 13.7613 13.2579C13.8977 12.985 13.8299 12.7467 13.7275 12.542C13.6251 12.3374 12.8034 10.3263 12.4614 9.50848C12.1282 8.71186 11.7902 8.81927 11.5381 8.80281C11.3017 8.79105 11.0244 8.7887 10.7502 8.7887C10.3295 8.79965 9.93254 8.98497 9.65512 9.29992C9.27931 9.70919 8.21887 10.6971 8.21887 12.7083C8.21887 14.7194 9.68978 16.6623 9.89463 16.9352C10.0995 17.208 12.79 21.3346 16.9065 23.105C17.6711 23.4332 18.4523 23.7211 19.2473 23.9675C20.2304 24.2811 21.1254 24.2349 21.8329 24.1298C22.6208 24.0122 24.2619 23.1411 24.6045 22.1868C24.9473 21.2327 24.9466 20.4141 24.841 20.2439C24.7354 20.0738 24.4706 19.9797 24.0602 19.7751V19.7719Z" fill="#DE4300"/>
</svg>
