<svg width="375" height="747" viewBox="0 0 375 747" fill="none" xmlns="http://www.w3.org/2000/svg">
<g clip-path="url(#clip0_4693_12816)">
<g clip-path="url(#clip1_4693_12816)">
<path d="M28.8855 4.2207C29.3543 4.35742 29.7173 4.59017 29.9744 4.91895C30.2348 5.24772 30.365 5.63184 30.365 6.07129C30.365 6.7028 30.1551 7.2041 29.7352 7.5752C29.3185 7.94629 28.8042 8.13184 28.1922 8.13184C27.5509 8.13184 27.0236 7.94466 26.6102 7.57031C26.2 7.19596 25.9949 6.69954 25.9949 6.08105C25.9949 5.64486 26.1284 5.26074 26.3953 4.92871C26.6622 4.59668 27.035 4.36068 27.5135 4.2207C27.1326 4.12305 26.8266 3.93587 26.5955 3.65918C26.3676 3.37923 26.2537 3.06673 26.2537 2.72168C26.2537 2.27897 26.4295 1.87858 26.7811 1.52051C27.1326 1.15918 27.5965 0.978516 28.1727 0.978516C28.7423 0.978516 29.2127 1.15755 29.5838 1.51562C29.9581 1.8737 30.1453 2.27572 30.1453 2.72168C30.1453 3.05697 30.0281 3.36621 29.7937 3.64941C29.5594 3.92936 29.2566 4.11979 28.8855 4.2207ZM28.1727 3.88867C28.1889 3.88867 28.2671 3.86914 28.407 3.83008C28.547 3.79102 28.6658 3.74382 28.7635 3.68848C28.8644 3.62988 28.9572 3.55664 29.0418 3.46875C29.1264 3.38086 29.1948 3.27832 29.2469 3.16113C29.299 3.04069 29.325 2.90723 29.325 2.76074C29.325 2.44824 29.2127 2.18945 28.9881 1.98438C28.7635 1.77604 28.4917 1.67188 28.1727 1.67188C27.8634 1.67188 27.5981 1.77767 27.3768 1.98926C27.1554 2.20085 27.0447 2.45801 27.0447 2.76074C27.0447 2.9528 27.0838 3.12044 27.1619 3.26367C27.2433 3.4069 27.3426 3.52246 27.4598 3.61035C27.5802 3.69824 27.7169 3.7666 27.8699 3.81543C28.0262 3.86426 28.1271 3.88867 28.1727 3.88867ZM28.1727 4.57227C27.2807 4.83268 26.8348 5.32259 26.8348 6.04199C26.8348 6.46191 26.9699 6.79883 27.24 7.05273C27.5102 7.30339 27.8276 7.42871 28.1922 7.42871C28.5698 7.42871 28.8872 7.30501 29.1443 7.05762C29.4048 6.80697 29.535 6.46842 29.535 6.04199C29.535 5.71973 29.4454 5.43164 29.2664 5.17773C29.0874 4.92057 28.7228 4.71875 28.1727 4.57227ZM33.7883 0.978516C34.5174 0.978516 35.0773 1.29264 35.468 1.9209C35.8618 2.5459 36.0588 3.4248 36.0588 4.55762C36.0588 5.65462 35.8684 6.52539 35.4875 7.16992C35.1066 7.8112 34.5402 8.13184 33.7883 8.13184C33.0624 8.13184 32.5025 7.81934 32.1086 7.19434C31.7147 6.56934 31.5178 5.69043 31.5178 4.55762C31.5178 3.45736 31.7082 2.58659 32.0891 1.94531C32.4732 1.30078 33.0396 0.978516 33.7883 0.978516ZM33.7883 7.42871C34.2701 7.42871 34.6265 7.20085 34.8576 6.74512C35.092 6.28613 35.2092 5.55697 35.2092 4.55762C35.2092 3.55501 35.092 2.82747 34.8576 2.375C34.6265 1.91927 34.2701 1.69141 33.7883 1.69141C33.313 1.69141 32.9582 1.92415 32.7238 2.38965C32.4895 2.85514 32.3723 3.5778 32.3723 4.55762C32.3723 5.55046 32.4878 6.27799 32.7189 6.74023C32.9533 7.19922 33.3098 7.42871 33.7883 7.42871ZM33.7687 3.8252C33.9738 3.8252 34.1464 3.89681 34.2863 4.04004C34.4296 4.18001 34.5012 4.35254 34.5012 4.55762C34.5012 4.76921 34.4296 4.9515 34.2863 5.10449C34.1431 5.25423 33.9706 5.3291 33.7687 5.3291C33.5702 5.3291 33.3993 5.25423 33.2561 5.10449C33.1161 4.9515 33.0461 4.76921 33.0461 4.55762C33.0461 4.34928 33.1145 4.17513 33.2512 4.03516C33.3911 3.89518 33.5637 3.8252 33.7687 3.8252Z" fill="#E9D8C5" fill-opacity="0.16"/>
<path d="M31 14L31 18" stroke="#E9D8C5" stroke-opacity="0.16" stroke-width="0.5"/>
<path d="M66.7117 4.41113C67.1414 4.06283 67.6085 3.88867 68.1131 3.88867C68.6958 3.88867 69.1808 4.07585 69.5682 4.4502C69.9588 4.82129 70.1541 5.30143 70.1541 5.89062C70.1541 6.53841 69.9816 7.07389 69.6365 7.49707C69.2915 7.92025 68.8309 8.13184 68.2547 8.13184C67.519 8.13184 66.9363 7.79492 66.5066 7.12109C66.077 6.44401 65.8621 5.61719 65.8621 4.64062C65.8621 3.59896 66.0851 2.72819 66.5311 2.02832C66.9803 1.32845 67.5939 0.978516 68.3719 0.978516C68.909 0.978516 69.3729 1.05827 69.7635 1.21777L69.6365 1.93066C69.184 1.76465 68.7706 1.68164 68.3963 1.68164C67.8657 1.68164 67.4523 1.93555 67.1561 2.44336C66.8598 2.95117 66.7117 3.6071 66.7117 4.41113ZM66.7361 5.09961C66.7361 5.6888 66.8745 6.22428 67.1512 6.70605C67.4279 7.18783 67.7762 7.42871 68.1961 7.42871C68.5509 7.42871 68.8243 7.2985 69.0164 7.03809C69.2085 6.77767 69.3045 6.41797 69.3045 5.95898C69.3045 5.53581 69.1987 5.20215 68.9871 4.95801C68.7755 4.71387 68.4777 4.5918 68.0936 4.5918C67.5955 4.5918 67.143 4.76107 66.7361 5.09961ZM73.5383 0.978516C74.2674 0.978516 74.8273 1.29264 75.218 1.9209C75.6118 2.5459 75.8088 3.4248 75.8088 4.55762C75.8088 5.65462 75.6184 6.52539 75.2375 7.16992C74.8566 7.8112 74.2902 8.13184 73.5383 8.13184C72.8124 8.13184 72.2525 7.81934 71.8586 7.19434C71.4647 6.56934 71.2678 5.69043 71.2678 4.55762C71.2678 3.45736 71.4582 2.58659 71.8391 1.94531C72.2232 1.30078 72.7896 0.978516 73.5383 0.978516ZM73.5383 7.42871C74.0201 7.42871 74.3765 7.20085 74.6076 6.74512C74.842 6.28613 74.9592 5.55697 74.9592 4.55762C74.9592 3.55501 74.842 2.82747 74.6076 2.375C74.3765 1.91927 74.0201 1.69141 73.5383 1.69141C73.063 1.69141 72.7082 1.92415 72.4738 2.38965C72.2395 2.85514 72.1223 3.5778 72.1223 4.55762C72.1223 5.55046 72.2378 6.27799 72.4689 6.74023C72.7033 7.19922 73.0598 7.42871 73.5383 7.42871ZM73.5187 3.8252C73.7238 3.8252 73.8964 3.89681 74.0363 4.04004C74.1796 4.18001 74.2512 4.35254 74.2512 4.55762C74.2512 4.76921 74.1796 4.9515 74.0363 5.10449C73.8931 5.25423 73.7206 5.3291 73.5187 5.3291C73.3202 5.3291 73.1493 5.25423 73.0061 5.10449C72.8661 4.9515 72.7961 4.76921 72.7961 4.55762C72.7961 4.34928 72.8645 4.17513 73.0012 4.03516C73.1411 3.89518 73.3137 3.8252 73.5187 3.8252Z" fill="#E9D8C5" fill-opacity="0.16"/>
<path d="M70.75 14L70.75 18" stroke="#E9D8C5" stroke-opacity="0.16" stroke-width="0.5"/>
<path d="M109.933 6.4082H109.084V8H108.283V6.4082H105.285V5.79785L108.005 1.11035H109.084V5.70996H109.933V6.4082ZM108.283 5.70996V1.90137L106.096 5.70996H108.283ZM113.288 0.978516C114.017 0.978516 114.577 1.29264 114.968 1.9209C115.362 2.5459 115.559 3.4248 115.559 4.55762C115.559 5.65462 115.368 6.52539 114.987 7.16992C114.607 7.8112 114.04 8.13184 113.288 8.13184C112.562 8.13184 112.002 7.81934 111.609 7.19434C111.215 6.56934 111.018 5.69043 111.018 4.55762C111.018 3.45736 111.208 2.58659 111.589 1.94531C111.973 1.30078 112.54 0.978516 113.288 0.978516ZM113.288 7.42871C113.77 7.42871 114.126 7.20085 114.358 6.74512C114.592 6.28613 114.709 5.55697 114.709 4.55762C114.709 3.55501 114.592 2.82747 114.358 2.375C114.126 1.91927 113.77 1.69141 113.288 1.69141C112.813 1.69141 112.458 1.92415 112.224 2.38965C111.989 2.85514 111.872 3.5778 111.872 4.55762C111.872 5.55046 111.988 6.27799 112.219 6.74023C112.453 7.19922 112.81 7.42871 113.288 7.42871ZM113.269 3.8252C113.474 3.8252 113.646 3.89681 113.786 4.04004C113.93 4.18001 114.001 4.35254 114.001 4.55762C114.001 4.76921 113.93 4.9515 113.786 5.10449C113.643 5.25423 113.471 5.3291 113.269 5.3291C113.07 5.3291 112.899 5.25423 112.756 5.10449C112.616 4.9515 112.546 4.76921 112.546 4.55762C112.546 4.34928 112.614 4.17513 112.751 4.03516C112.891 3.89518 113.064 3.8252 113.269 3.8252Z" fill="#E9D8C5" fill-opacity="0.16"/>
<path d="M110.5 14L110.5 18" stroke="#E9D8C5" stroke-opacity="0.16" stroke-width="0.5"/>
<path d="M149.234 8H145.445V7.41895C146.405 6.34798 147.029 5.63021 147.315 5.26562C147.602 4.90104 147.834 4.51855 148.013 4.11816C148.193 3.71777 148.282 3.31901 148.282 2.92188C148.282 2.53776 148.165 2.23503 147.93 2.01367C147.699 1.79232 147.374 1.68164 146.954 1.68164C146.632 1.68164 146.199 1.78092 145.655 1.97949L145.543 1.29102C146.034 1.08268 146.549 0.978516 147.086 0.978516C147.701 0.978516 148.196 1.15267 148.57 1.50098C148.948 1.84603 149.137 2.30827 149.137 2.8877C149.137 3.30111 149.039 3.71126 148.844 4.11816C148.651 4.52507 148.404 4.91569 148.101 5.29004C147.799 5.66439 147.209 6.33496 146.334 7.30176H149.234V8ZM153.038 0.978516C153.767 0.978516 154.327 1.29264 154.718 1.9209C155.112 2.5459 155.309 3.4248 155.309 4.55762C155.309 5.65462 155.118 6.52539 154.737 7.16992C154.357 7.8112 153.79 8.13184 153.038 8.13184C152.312 8.13184 151.752 7.81934 151.359 7.19434C150.965 6.56934 150.768 5.69043 150.768 4.55762C150.768 3.45736 150.958 2.58659 151.339 1.94531C151.723 1.30078 152.29 0.978516 153.038 0.978516ZM153.038 7.42871C153.52 7.42871 153.876 7.20085 154.108 6.74512C154.342 6.28613 154.459 5.55697 154.459 4.55762C154.459 3.55501 154.342 2.82747 154.108 2.375C153.876 1.91927 153.52 1.69141 153.038 1.69141C152.563 1.69141 152.208 1.92415 151.974 2.38965C151.739 2.85514 151.622 3.5778 151.622 4.55762C151.622 5.55046 151.738 6.27799 151.969 6.74023C152.203 7.19922 152.56 7.42871 153.038 7.42871ZM153.019 3.8252C153.224 3.8252 153.396 3.89681 153.536 4.04004C153.68 4.18001 153.751 4.35254 153.751 4.55762C153.751 4.76921 153.68 4.9515 153.536 5.10449C153.393 5.25423 153.221 5.3291 153.019 5.3291C152.82 5.3291 152.649 5.25423 152.506 5.10449C152.366 4.9515 152.296 4.76921 152.296 4.55762C152.296 4.34928 152.364 4.17513 152.501 4.03516C152.641 3.89518 152.814 3.8252 153.019 3.8252Z" fill="#E9D8C5" fill-opacity="0.16"/>
<path d="M150.25 14L150.25 18" stroke="#E9D8C5" stroke-opacity="0.16" stroke-width="0.5"/>
<path d="M187.485 0.978516C188.215 0.978516 188.774 1.29264 189.165 1.9209C189.559 2.5459 189.756 3.4248 189.756 4.55762C189.756 5.65462 189.565 6.52539 189.185 7.16992C188.804 7.8112 188.237 8.13184 187.485 8.13184C186.759 8.13184 186.2 7.81934 185.806 7.19434C185.412 6.56934 185.215 5.69043 185.215 4.55762C185.215 3.45736 185.405 2.58659 185.786 1.94531C186.17 1.30078 186.737 0.978516 187.485 0.978516ZM187.485 7.42871C187.967 7.42871 188.324 7.20085 188.555 6.74512C188.789 6.28613 188.906 5.55697 188.906 4.55762C188.906 3.55501 188.789 2.82747 188.555 2.375C188.324 1.91927 187.967 1.69141 187.485 1.69141C187.01 1.69141 186.655 1.92415 186.421 2.38965C186.187 2.85514 186.069 3.5778 186.069 4.55762C186.069 5.55046 186.185 6.27799 186.416 6.74023C186.65 7.19922 187.007 7.42871 187.485 7.42871ZM187.466 3.8252C187.671 3.8252 187.843 3.89681 187.983 4.04004C188.127 4.18001 188.198 4.35254 188.198 4.55762C188.198 4.76921 188.127 4.9515 187.983 5.10449C187.84 5.25423 187.668 5.3291 187.466 5.3291C187.267 5.3291 187.096 5.25423 186.953 5.10449C186.813 4.9515 186.743 4.76921 186.743 4.55762C186.743 4.34928 186.812 4.17513 186.948 4.03516C187.088 3.89518 187.261 3.8252 187.466 3.8252Z" fill="#E9D8C5" fill-opacity="0.16"/>
<path d="M187.5 14L187.5 18" stroke="#E9D8C5" stroke-opacity="0.16" stroke-width="0.5"/>
<path d="M223.734 8H219.945V7.41895C220.905 6.34798 221.529 5.63021 221.815 5.26562C222.102 4.90104 222.334 4.51855 222.513 4.11816C222.693 3.71777 222.782 3.31901 222.782 2.92188C222.782 2.53776 222.665 2.23503 222.43 2.01367C222.199 1.79232 221.874 1.68164 221.454 1.68164C221.132 1.68164 220.699 1.78092 220.155 1.97949L220.043 1.29102C220.534 1.08268 221.049 0.978516 221.586 0.978516C222.201 0.978516 222.696 1.15267 223.07 1.50098C223.448 1.84603 223.637 2.30827 223.637 2.8877C223.637 3.30111 223.539 3.71126 223.344 4.11816C223.151 4.52507 222.904 4.91569 222.601 5.29004C222.299 5.66439 221.709 6.33496 220.834 7.30176H223.734V8ZM227.538 0.978516C228.267 0.978516 228.827 1.29264 229.218 1.9209C229.612 2.5459 229.809 3.4248 229.809 4.55762C229.809 5.65462 229.618 6.52539 229.237 7.16992C228.857 7.8112 228.29 8.13184 227.538 8.13184C226.812 8.13184 226.252 7.81934 225.859 7.19434C225.465 6.56934 225.268 5.69043 225.268 4.55762C225.268 3.45736 225.458 2.58659 225.839 1.94531C226.223 1.30078 226.79 0.978516 227.538 0.978516ZM227.538 7.42871C228.02 7.42871 228.376 7.20085 228.608 6.74512C228.842 6.28613 228.959 5.55697 228.959 4.55762C228.959 3.55501 228.842 2.82747 228.608 2.375C228.376 1.91927 228.02 1.69141 227.538 1.69141C227.063 1.69141 226.708 1.92415 226.474 2.38965C226.239 2.85514 226.122 3.5778 226.122 4.55762C226.122 5.55046 226.238 6.27799 226.469 6.74023C226.703 7.19922 227.06 7.42871 227.538 7.42871ZM227.519 3.8252C227.724 3.8252 227.896 3.89681 228.036 4.04004C228.18 4.18001 228.251 4.35254 228.251 4.55762C228.251 4.76921 228.18 4.9515 228.036 5.10449C227.893 5.25423 227.721 5.3291 227.519 5.3291C227.32 5.3291 227.149 5.25423 227.006 5.10449C226.866 4.9515 226.796 4.76921 226.796 4.55762C226.796 4.34928 226.864 4.17513 227.001 4.03516C227.141 3.89518 227.314 3.8252 227.519 3.8252Z" fill="#E9D8C5" fill-opacity="0.16"/>
<path d="M224.75 14L224.75 18" stroke="#E9D8C5" stroke-opacity="0.16" stroke-width="0.5"/>
<path d="M263.933 6.4082H263.084V8H262.283V6.4082H259.285V5.79785L262.005 1.11035H263.084V5.70996H263.933V6.4082ZM262.283 5.70996V1.90137L260.096 5.70996H262.283ZM267.288 0.978516C268.017 0.978516 268.577 1.29264 268.968 1.9209C269.362 2.5459 269.559 3.4248 269.559 4.55762C269.559 5.65462 269.368 6.52539 268.987 7.16992C268.607 7.8112 268.04 8.13184 267.288 8.13184C266.562 8.13184 266.002 7.81934 265.609 7.19434C265.215 6.56934 265.018 5.69043 265.018 4.55762C265.018 3.45736 265.208 2.58659 265.589 1.94531C265.973 1.30078 266.54 0.978516 267.288 0.978516ZM267.288 7.42871C267.77 7.42871 268.126 7.20085 268.358 6.74512C268.592 6.28613 268.709 5.55697 268.709 4.55762C268.709 3.55501 268.592 2.82747 268.358 2.375C268.126 1.91927 267.77 1.69141 267.288 1.69141C266.813 1.69141 266.458 1.92415 266.224 2.38965C265.989 2.85514 265.872 3.5778 265.872 4.55762C265.872 5.55046 265.988 6.27799 266.219 6.74023C266.453 7.19922 266.81 7.42871 267.288 7.42871ZM267.269 3.8252C267.474 3.8252 267.646 3.89681 267.786 4.04004C267.93 4.18001 268.001 4.35254 268.001 4.55762C268.001 4.76921 267.93 4.9515 267.786 5.10449C267.643 5.25423 267.471 5.3291 267.269 5.3291C267.07 5.3291 266.899 5.25423 266.756 5.10449C266.616 4.9515 266.546 4.76921 266.546 4.55762C266.546 4.34928 266.614 4.17513 266.751 4.03516C266.891 3.89518 267.064 3.8252 267.269 3.8252Z" fill="#E9D8C5" fill-opacity="0.16"/>
<path d="M264.5 14L264.5 18" stroke="#E9D8C5" stroke-opacity="0.16" stroke-width="0.5"/>
<path d="M300.212 4.41113C300.641 4.06283 301.109 3.88867 301.613 3.88867C302.196 3.88867 302.681 4.07585 303.068 4.4502C303.459 4.82129 303.654 5.30143 303.654 5.89062C303.654 6.53841 303.482 7.07389 303.137 7.49707C302.791 7.92025 302.331 8.13184 301.755 8.13184C301.019 8.13184 300.436 7.79492 300.007 7.12109C299.577 6.44401 299.362 5.61719 299.362 4.64062C299.362 3.59896 299.585 2.72819 300.031 2.02832C300.48 1.32845 301.094 0.978516 301.872 0.978516C302.409 0.978516 302.873 1.05827 303.263 1.21777L303.137 1.93066C302.684 1.76465 302.271 1.68164 301.896 1.68164C301.366 1.68164 300.952 1.93555 300.656 2.44336C300.36 2.95117 300.212 3.6071 300.212 4.41113ZM300.236 5.09961C300.236 5.6888 300.374 6.22428 300.651 6.70605C300.928 7.18783 301.276 7.42871 301.696 7.42871C302.051 7.42871 302.324 7.2985 302.516 7.03809C302.708 6.77767 302.804 6.41797 302.804 5.95898C302.804 5.53581 302.699 5.20215 302.487 4.95801C302.276 4.71387 301.978 4.5918 301.594 4.5918C301.096 4.5918 300.643 4.76107 300.236 5.09961ZM307.038 0.978516C307.767 0.978516 308.327 1.29264 308.718 1.9209C309.112 2.5459 309.309 3.4248 309.309 4.55762C309.309 5.65462 309.118 6.52539 308.737 7.16992C308.357 7.8112 307.79 8.13184 307.038 8.13184C306.312 8.13184 305.752 7.81934 305.359 7.19434C304.965 6.56934 304.768 5.69043 304.768 4.55762C304.768 3.45736 304.958 2.58659 305.339 1.94531C305.723 1.30078 306.29 0.978516 307.038 0.978516ZM307.038 7.42871C307.52 7.42871 307.876 7.20085 308.108 6.74512C308.342 6.28613 308.459 5.55697 308.459 4.55762C308.459 3.55501 308.342 2.82747 308.108 2.375C307.876 1.91927 307.52 1.69141 307.038 1.69141C306.563 1.69141 306.208 1.92415 305.974 2.38965C305.739 2.85514 305.622 3.5778 305.622 4.55762C305.622 5.55046 305.738 6.27799 305.969 6.74023C306.203 7.19922 306.56 7.42871 307.038 7.42871ZM307.019 3.8252C307.224 3.8252 307.396 3.89681 307.536 4.04004C307.68 4.18001 307.751 4.35254 307.751 4.55762C307.751 4.76921 307.68 4.9515 307.536 5.10449C307.393 5.25423 307.221 5.3291 307.019 5.3291C306.82 5.3291 306.649 5.25423 306.506 5.10449C306.366 4.9515 306.296 4.76921 306.296 4.55762C306.296 4.34928 306.364 4.17513 306.501 4.03516C306.641 3.89518 306.814 3.8252 307.019 3.8252Z" fill="#E9D8C5" fill-opacity="0.16"/>
<path d="M304.25 14L304.25 18" stroke="#E9D8C5" stroke-opacity="0.16" stroke-width="0.5"/>
<path d="M341.886 4.2207C342.354 4.35742 342.717 4.59017 342.974 4.91895C343.235 5.24772 343.365 5.63184 343.365 6.07129C343.365 6.7028 343.155 7.2041 342.735 7.5752C342.318 7.94629 341.804 8.13184 341.192 8.13184C340.551 8.13184 340.024 7.94466 339.61 7.57031C339.2 7.19596 338.995 6.69954 338.995 6.08105C338.995 5.64486 339.128 5.26074 339.395 4.92871C339.662 4.59668 340.035 4.36068 340.513 4.2207C340.133 4.12305 339.827 3.93587 339.596 3.65918C339.368 3.37923 339.254 3.06673 339.254 2.72168C339.254 2.27897 339.429 1.87858 339.781 1.52051C340.133 1.15918 340.596 0.978516 341.173 0.978516C341.742 0.978516 342.213 1.15755 342.584 1.51562C342.958 1.8737 343.145 2.27572 343.145 2.72168C343.145 3.05697 343.028 3.36621 342.794 3.64941C342.559 3.92936 342.257 4.11979 341.886 4.2207ZM341.173 3.88867C341.189 3.88867 341.267 3.86914 341.407 3.83008C341.547 3.79102 341.666 3.74382 341.763 3.68848C341.864 3.62988 341.957 3.55664 342.042 3.46875C342.126 3.38086 342.195 3.27832 342.247 3.16113C342.299 3.04069 342.325 2.90723 342.325 2.76074C342.325 2.44824 342.213 2.18945 341.988 1.98438C341.763 1.77604 341.492 1.67188 341.173 1.67188C340.863 1.67188 340.598 1.77767 340.377 1.98926C340.155 2.20085 340.045 2.45801 340.045 2.76074C340.045 2.9528 340.084 3.12044 340.162 3.26367C340.243 3.4069 340.343 3.52246 340.46 3.61035C340.58 3.69824 340.717 3.7666 340.87 3.81543C341.026 3.86426 341.127 3.88867 341.173 3.88867ZM341.173 4.57227C340.281 4.83268 339.835 5.32259 339.835 6.04199C339.835 6.46191 339.97 6.79883 340.24 7.05273C340.51 7.30339 340.828 7.42871 341.192 7.42871C341.57 7.42871 341.887 7.30501 342.144 7.05762C342.405 6.80697 342.535 6.46842 342.535 6.04199C342.535 5.71973 342.445 5.43164 342.266 5.17773C342.087 4.92057 341.723 4.71875 341.173 4.57227ZM346.788 0.978516C347.517 0.978516 348.077 1.29264 348.468 1.9209C348.862 2.5459 349.059 3.4248 349.059 4.55762C349.059 5.65462 348.868 6.52539 348.487 7.16992C348.107 7.8112 347.54 8.13184 346.788 8.13184C346.062 8.13184 345.502 7.81934 345.109 7.19434C344.715 6.56934 344.518 5.69043 344.518 4.55762C344.518 3.45736 344.708 2.58659 345.089 1.94531C345.473 1.30078 346.04 0.978516 346.788 0.978516ZM346.788 7.42871C347.27 7.42871 347.626 7.20085 347.858 6.74512C348.092 6.28613 348.209 5.55697 348.209 4.55762C348.209 3.55501 348.092 2.82747 347.858 2.375C347.626 1.91927 347.27 1.69141 346.788 1.69141C346.313 1.69141 345.958 1.92415 345.724 2.38965C345.489 2.85514 345.372 3.5778 345.372 4.55762C345.372 5.55046 345.488 6.27799 345.719 6.74023C345.953 7.19922 346.31 7.42871 346.788 7.42871ZM346.769 3.8252C346.974 3.8252 347.146 3.89681 347.286 4.04004C347.43 4.18001 347.501 4.35254 347.501 4.55762C347.501 4.76921 347.43 4.9515 347.286 5.10449C347.143 5.25423 346.971 5.3291 346.769 5.3291C346.57 5.3291 346.399 5.25423 346.256 5.10449C346.116 4.9515 346.046 4.76921 346.046 4.55762C346.046 4.34928 346.114 4.17513 346.251 4.03516C346.391 3.89518 346.564 3.8252 346.769 3.8252Z" fill="#E9D8C5" fill-opacity="0.16"/>
<path d="M344 14L344 18" stroke="#E9D8C5" stroke-opacity="0.16" stroke-width="0.5"/>
<line x1="31" y1="18" x2="31" y2="812" stroke="#F1E2D2" stroke-opacity="0.06" stroke-width="0.5"/>
<line x1="70.75" y1="17.9997" x2="71.6599" y2="811.999" stroke="#F1E2D2" stroke-opacity="0.06" stroke-width="0.5"/>
<line x1="110.5" y1="17.9997" x2="111.41" y2="811.999" stroke="#F1E2D2" stroke-opacity="0.06" stroke-width="0.5"/>
<line x1="150.25" y1="17.9997" x2="151.16" y2="811.999" stroke="#F1E2D2" stroke-opacity="0.06" stroke-width="0.5"/>
<line x1="187.5" y1="17.9997" x2="188.41" y2="811.999" stroke="#F1E2D2" stroke-opacity="0.06" stroke-width="0.5"/>
<line x1="224.75" y1="17.9997" x2="225.66" y2="811.999" stroke="#F1E2D2" stroke-opacity="0.06" stroke-width="0.5"/>
<line x1="264.5" y1="17.9997" x2="265.41" y2="811.999" stroke="#F1E2D2" stroke-opacity="0.06" stroke-width="0.5"/>
<line x1="304.25" y1="17.9997" x2="305.16" y2="811.999" stroke="#F1E2D2" stroke-opacity="0.06" stroke-width="0.5"/>
<line x1="344" y1="17.9997" x2="344.91" y2="811.999" stroke="#F1E2D2" stroke-opacity="0.06" stroke-width="0.5"/>
<line y1="39.75" x2="375" y2="39.75" stroke="#F1E2D2" stroke-opacity="0.06" stroke-width="0.5"/>
<line y1="364.75" x2="375" y2="364.75" stroke="#F1E2D2" stroke-opacity="0.06" stroke-width="0.5"/>
<line y1="202.75" x2="375" y2="202.75" stroke="#F1E2D2" stroke-opacity="0.06" stroke-width="0.5"/>
<line y1="527.75" x2="375" y2="527.75" stroke="#F1E2D2" stroke-opacity="0.06" stroke-width="0.5"/>
<line y1="80.75" x2="375" y2="80.75" stroke="#F1E2D2" stroke-opacity="0.06" stroke-width="0.5"/>
<line y1="405.75" x2="375" y2="405.75" stroke="#F1E2D2" stroke-opacity="0.06" stroke-width="0.5"/>
<line y1="242.75" x2="375" y2="242.75" stroke="#F1E2D2" stroke-opacity="0.06" stroke-width="0.5"/>
<line y1="568.75" x2="375" y2="568.75" stroke="#F1E2D2" stroke-opacity="0.06" stroke-width="0.5"/>
<line y1="690.75" x2="375" y2="690.75" stroke="#F1E2D2" stroke-opacity="0.06" stroke-width="0.5"/>
<line y1="120.75" x2="375" y2="120.75" stroke="#F1E2D2" stroke-opacity="0.06" stroke-width="0.5"/>
<line y1="446.75" x2="375" y2="446.75" stroke="#F1E2D2" stroke-opacity="0.06" stroke-width="0.5"/>
<line y1="283.75" x2="375" y2="283.75" stroke="#F1E2D2" stroke-opacity="0.06" stroke-width="0.5"/>
<line y1="608.75" x2="375" y2="608.75" stroke="#F1E2D2" stroke-opacity="0.06" stroke-width="0.5"/>
<line y1="730.75" x2="375" y2="730.75" stroke="#F1E2D2" stroke-opacity="0.06" stroke-width="0.5"/>
<line y1="161.75" x2="375" y2="161.75" stroke="#F1E2D2" stroke-opacity="0.06" stroke-width="0.5"/>
<line y1="486.75" x2="375" y2="486.75" stroke="#F1E2D2" stroke-opacity="0.06" stroke-width="0.5"/>
<line y1="324.75" x2="375" y2="324.75" stroke="#F1E2D2" stroke-opacity="0.06" stroke-width="0.5"/>
<line y1="649.75" x2="375" y2="649.75" stroke="#F1E2D2" stroke-opacity="0.06" stroke-width="0.5"/>
</g>
<g clip-path="url(#clip2_4693_12816)">
<g opacity="0.7">
<circle cx="187.275" cy="461.569" r="167.411" stroke="#E9D8C5" stroke-opacity="0.24" stroke-width="5" stroke-dasharray="0.34 3.77"/>
<circle cx="187.276" cy="461.569" r="173.858" stroke="#E9D8C5" stroke-opacity="0.24" stroke-width="8" stroke-dasharray="0.41 28.86"/>
</g>
<g clip-path="url(#clip3_4693_12816)">
<line y1="-0.5" x2="2133.19" y2="-0.5" transform="matrix(0.706578 -0.707635 0.706578 0.707635 -565.956 1212.73)" stroke="#F1E2D2" stroke-opacity="0.06" stroke-dasharray="3.42 6.85"/>
<line y1="-0.5" x2="2133.19" y2="-0.5" transform="matrix(0.706706 0.707507 -0.706706 0.707507 -568.209 -296.786)" stroke="#F1E2D2" stroke-opacity="0.06" stroke-dasharray="3.42 6.85"/>
</g>
</g>
</g>
<defs>
<clipPath id="clip0_4693_12816">
<rect width="375" height="747" fill="white"/>
</clipPath>
<clipPath id="clip1_4693_12816">
<rect width="375" height="812" fill="white"/>
</clipPath>
<clipPath id="clip2_4693_12816">
<rect width="343" height="343" fill="white" transform="translate(15.7061 289)"/>
</clipPath>
<clipPath id="clip3_4693_12816">
<rect width="376" height="376" fill="white" transform="translate(0 268)"/>
</clipPath>
</defs>
</svg>
