<svg width="193" height="155" viewBox="0 0 193 155" fill="none" xmlns="http://www.w3.org/2000/svg">
<path d="M3.99983 131.401L10.4322 126.81C12.514 125.324 15.0861 124.692 17.6195 125.044L29.1783 126.651C32.6958 127.14 36.1401 125.361 37.777 122.21C38.4682 120.879 39.5036 119.758 40.7753 118.963L52.2372 111.8C54.2268 110.556 56.5903 110.052 58.9142 110.375L64.384 111.136C67.6448 111.589 70.3783 113.828 71.4658 116.935L72.1683 118.942C73.9624 124.068 80.4704 125.599 84.3617 121.811C86.6786 119.555 87.2705 116.06 85.8253 113.168L83.9829 109.48C82.0117 105.535 82.8579 100.764 86.0658 97.7373L87.6749 96.2191C89.1538 94.8238 90.1131 92.9663 90.3947 90.9527L91.5132 82.9562C91.8393 80.6253 94.396 79.3406 96.4608 80.47C97.6717 81.1324 99.1642 80.9882 100.226 80.1062L103.195 77.6401C106.023 75.2909 107.147 71.4637 106.04 67.958L104.683 63.6639C102.083 55.4336 110.431 47.9965 118.308 51.5257L133.274 58.2313C134.095 58.5992 134.874 59.1102 135.613 59.624C154.073 72.4623 169.642 22.8766 191 23.4619" stroke="#E9D8C5" stroke-opacity="0.5" stroke-width="0.5"/>
<circle cx="3.5" cy="131.962" r="1.5" fill="#E9D8C5"/>
<circle cx="189" cy="23.4619" r="3" fill="#DE4300" stroke="#E9D8C5" stroke-width="2"/>
</svg>
