<svg width="752" height="720" viewBox="0 0 752 720" fill="none" xmlns="http://www.w3.org/2000/svg">
<g clip-path="url(#clip0_2336_19074)">
<path d="M479.153 -60.6582L376.243 324.305L657.494 42.3984L657.848 42.752L376.689 324.565L760.887 221.38L761.016 221.863L378.188 324.682H774.485V325.182H377.573L761.145 428.2L761.016 428.684L376.95 325.532L658.2 607.44L657.848 607.794L375.984 325.272L479.154 711.205L478.671 711.335L375.726 326.239L272.815 711.205L272.333 711.075L375.278 325.977L94.1221 607.795L93.7686 607.44L375.016 325.533L-9.04785 428.684L-9.17676 428.2L374.396 325.182H-22.5146V324.682H373.782L-9.04785 221.863L-8.91895 221.38L375.278 324.565L94.1221 42.752L94.4756 42.3975L375.019 323.596L272.333 -60.5283L272.815 -60.6582L375.726 324.305L478.671 -60.7881L479.153 -60.6582Z" fill="url(#paint0_radial_2336_19074)" fill-opacity="0.08"/>
</g>
<defs>
<radialGradient id="paint0_radial_2336_19074" cx="0" cy="0" r="1" gradientTransform="matrix(-3.57576 -305.934 315.791 -3.70942 375.985 325.273)" gradientUnits="userSpaceOnUse">
<stop offset="0.840054" stop-color="#F1E2D2"/>
<stop offset="1" stop-color="#F1E2D2" stop-opacity="0"/>
</radialGradient>
<clipPath id="clip0_2336_19074">
<rect width="752" height="720" fill="white"/>
</clipPath>
</defs>
</svg>
