<svg width="299" height="122" viewBox="0 0 299 122" fill="none" xmlns="http://www.w3.org/2000/svg">
<path d="M3.72792 4.72824L15.8416 12.3636C17.8376 13.6217 20.2142 14.1336 22.5511 13.8086L46.2378 10.5149C50.2932 9.95095 54.2827 11.9162 56.3072 15.4752L57.3974 17.3918C58.312 18.9995 59.6545 20.3221 61.2757 21.2125L81.8313 32.5016C83.7185 33.538 85.8898 33.9377 88.0224 33.6412L98.5886 32.1719C103.359 31.5085 106.437 26.7751 105.108 22.1457C103.272 15.748 109.67 10.0773 115.801 12.6687L131.613 19.3523C135.073 20.8149 137.422 24.0934 137.693 27.8402L138.4 37.5799C138.55 39.6514 138.051 41.7182 136.973 43.4934L131.38 52.7037C127.293 59.4348 134.127 67.4947 141.436 64.5628L144.352 63.3929C148.7 61.6488 153.355 65.1144 152.932 69.7798C152.734 71.9637 153.691 74.0926 155.456 75.394L161.323 79.7197C164.903 82.3595 166.31 87.047 164.774 91.2217L158.767 107.548C155.758 115.724 163.916 123.569 171.969 120.244L208.174 105.291C208.942 104.974 209.672 104.561 210.334 104.06C240.146 81.4641 255.693 52.8296 289.927 51.479" stroke="#E9D8C5" stroke-opacity="0.5"/>
<circle cx="2.5" cy="3.5" r="2.5" fill="#E9D8C5"/>
<circle cx="291" cy="52" r="6" fill="#DE4300" stroke="#E9D8C5" stroke-width="4"/>
</svg>
