<svg width="1537" height="3671" viewBox="0 0 1537 3671" fill="none" xmlns="http://www.w3.org/2000/svg">
<path d="M390 3670.67V3646.17C390 3630.84 390 3598.57 390 3592.17C390 3585.77 347.667 3560.17 326.5 3548.17C297.5 3526.84 240.1 3482.17 242.5 3474.17C244.85 3466.34 297.226 3429.76 324.76 3411.33C325.926 3410.55 327.173 3409.94 328.502 3409.5L405.511 3383.51C407.159 3382.96 408.887 3382.67 410.627 3382.67H472.629C477.307 3382.67 481.75 3384.72 484.79 3388.27L534.805 3446.77C535.599 3447.7 536.284 3448.72 536.847 3449.8L592.453 3556.98C595.738 3563.31 602.816 3566.7 609.809 3565.3L682.84 3550.62C689.997 3549.18 695.291 3543.08 695.494 3535.78C695.756 3526.34 695.795 3515.47 695 3510.17C693.5 3500.17 731 3448.17 734 3436.67C736.284 3427.91 772.875 3425.41 793.498 3425.19C795.49 3425.17 797.442 3425.54 799.303 3426.26C825.489 3436.29 876.457 3453.19 891.5 3448.17C911 3441.67 963.5 3436.67 975 3425.17C983.398 3416.77 1008.82 3406.9 1023.59 3401.95C1026.15 3401.09 1028.89 3400.95 1031.54 3401.48L1075 3410.17C1111.5 3420.01 1184.5 3439.07 1184.5 3436.67C1184.5 3433.67 1237 3354.67 1237 3335.17C1237 3321.32 1217.29 3272.54 1204.12 3242.18C1201.39 3235.88 1202.9 3228.54 1207.95 3223.88L1278.74 3158.6C1281.49 3156.06 1283.27 3152.64 1283.76 3148.93L1296.79 3050.55C1297.25 3047.06 1298.85 3043.82 1301.34 3041.34L1310.28 3032.39C1316.08 3026.59 1316.55 3017.34 1311.51 3010.86C1298.76 2994.43 1283 2972.52 1283 2966.17C1283 2956.17 1211 2933.67 1184.5 2927.17C1158 2920.67 1075 2899.17 1068.5 2887.67C1064.26 2880.16 1061.72 2847.5 1060.57 2823.6C1060.18 2815.41 1066.19 2808.35 1074.32 2807.27L1169.43 2794.67C1177.88 2793.55 1183.97 2786.02 1183.11 2777.55C1180.78 2754.74 1176.61 2722.9 1171.5 2709.17C1165.19 2692.22 1217.64 2679.38 1245.8 2674.86C1246.61 2674.73 1247.41 2674.67 1248.24 2674.67H1411.42C1414.1 2674.67 1416.73 2674 1419.08 2672.72L1527.65 2613.58C1534.04 2610.1 1537.28 2602.75 1535.51 2595.69C1525.5 2555.73 1509.11 2492.45 1505.5 2486.67C1501.91 2480.93 1441.91 2449.77 1403.27 2430.31C1396.21 2426.76 1387.64 2428.94 1383.09 2435.4L1361.33 2466.28C1360.45 2467.54 1359.39 2468.66 1358.19 2469.61L1294.22 2520.28C1287.83 2525.35 1278.66 2524.8 1272.92 2519.01L1228.95 2474.67C1224.95 2470.64 1223.37 2464.81 1224.91 2459.35C1228.54 2446.47 1233.82 2429.26 1237 2424.17C1242 2416.17 1230.5 2388.17 1222.5 2362.17C1214.5 2336.17 1188 2348.67 1158.5 2339.17C1129 2329.67 1112.5 2348.67 1098 2348.67C1087.01 2348.67 1055.13 2305.62 1038.2 2280.68C1036.42 2278.06 1035.5 2274.99 1035.5 2271.83V2238.16C1035.5 2233.41 1033.39 2228.91 1029.75 2225.87L985.094 2188.6C979.228 2183.7 970.718 2183.64 964.778 2188.44L934.902 2212.61C932.054 2214.91 928.502 2216.17 924.838 2216.17H896C887.163 2216.17 880 2209.01 880 2200.17C880 2187.75 880 2173.15 880 2165.17C880 2150.17 795 2142.67 786.5 2142.67C778 2142.67 713 2171.67 706.5 2180.17C701.702 2186.45 640.64 2168.52 603.73 2156.54C598.307 2154.78 594.288 2150.24 593.131 2144.65L584.381 2102.43C583.804 2099.64 582.495 2097.06 580.588 2094.95L541.923 2052.14C534.736 2044.18 521.911 2045.41 516.36 2054.58L487.806 2101.77C483.422 2109.02 474.152 2111.59 466.659 2107.64L336.047 2038.83C332.783 2037.11 330.213 2034.32 328.774 2030.92L311.5 1990.17L280.696 1937.49C278.349 1933.48 274.384 1930.69 269.814 1929.84C247.365 1925.65 210.323 1918.68 198.5 1916.17C186.355 1913.6 176.101 1899.25 171.554 1890.75C170.824 1889.38 170.377 1887.9 170.135 1886.37L159.086 1816.68C158.118 1810.57 160.757 1804.45 165.865 1800.96L195.42 1780.78C197.446 1779.39 199.763 1778.49 202.193 1778.15L290 1765.67H387L537.154 1786.23C541.523 1786.83 545.945 1785.6 549.376 1782.83L609.181 1734.54C610.714 1733.31 612.005 1731.8 612.989 1730.09L631.885 1697.34C633.271 1694.93 635.258 1692.93 637.651 1691.53L724.109 1640.83C727.575 1638.8 731.672 1638.15 735.606 1638.97C758.033 1643.63 796.797 1650.63 811 1649.17C826.6 1647.57 839.5 1626.84 844 1616.67C847.167 1610.17 851.6 1595.47 844 1588.67C838.993 1584.19 829.659 1584.38 821.633 1585.85C815.108 1587.04 808.137 1585.36 803.803 1580.33L779.977 1552.73C774.393 1546.26 774.869 1536.56 781.068 1530.67C805.041 1507.92 839.553 1475.12 844 1470.67C850.5 1464.17 909.5 1500.17 919.5 1518.17C927.5 1532.57 952.833 1524.17 964.5 1518.17L986.887 1503.01C997.638 1495.73 995.699 1479.36 983.546 1474.79L955.641 1464.3C947.91 1461.39 943.661 1453.08 945.834 1445.11L962.616 1383.58C963.815 1379.19 963.082 1374.49 960.602 1370.66L907.253 1288.43C902.236 1280.7 891.757 1278.78 884.372 1284.3C845.805 1313.1 787.111 1358.16 782.5 1366.67C778.186 1374.64 766.235 1366.63 758.004 1359.11C755.004 1356.37 753.5 1352.41 753.5 1348.34V1294.93C753.5 1292.78 753.067 1290.65 752.226 1288.67L733.639 1244.92C731.13 1239.01 725.332 1235.17 718.913 1235.17H650.937C649.981 1235.17 649.027 1235.26 648.086 1235.43L599.477 1244.23C594.463 1245.14 589.315 1243.6 585.617 1240.09L565.925 1221.42C563.689 1219.3 562.113 1216.58 561.386 1213.59L549.323 1163.91C547.22 1155.25 538.445 1149.98 529.711 1151.77C514.682 1154.84 495.588 1157.8 484 1156.67C471.287 1155.43 454.95 1152.31 443.976 1149.96C438.954 1148.88 434.833 1145.36 432.863 1140.62L423.361 1117.74C422.793 1116.38 422.5 1114.91 422.5 1113.43C422.5 1107.21 427.539 1102.17 433.755 1102.17H466.11C474.057 1102.17 480.5 1095.73 480.5 1087.78C480.5 1083.02 478.145 1078.57 474.21 1075.89L431.117 1046.54C425.879 1042.97 419.03 1042.83 413.651 1046.18L400.698 1054.25C395.397 1057.56 388.658 1057.47 383.44 1054.04L342.505 1027.09C336.34 1023.03 328.199 1023.71 322.799 1028.75L320.135 1031.23C314.317 1036.65 305.401 1036.97 299.203 1031.99L290.475 1024.98C286.697 1021.94 284.5 1017.35 284.5 1012.51V967.887C284.5 965.443 285.06 963.031 286.137 960.836L295.464 941.837C297.103 938.498 299.855 935.835 303.245 934.305L353.343 911.694C354.113 911.346 354.91 911.06 355.725 910.838L415.524 894.57C419.959 893.363 423.661 890.307 425.686 886.182L427.019 883.466C431.591 874.154 426.228 863.02 416.097 860.789L387.929 854.587C383.81 853.68 380.217 851.184 377.929 847.642L371.884 838.282C368.331 832.781 368.489 825.67 372.283 820.332L475.13 675.634C478.967 670.235 479.081 663.03 475.416 657.512L445.468 612.426C440.345 604.713 442.819 594.275 450.858 589.682L506 558.172L569.249 512.005C572.616 509.547 574.891 505.872 575.59 501.763L589.236 421.49C590.543 413.799 597.208 408.172 605.01 408.172H705.357C706.779 408.172 708.195 407.982 709.567 407.608L808.607 380.597C810.842 379.987 812.919 378.9 814.692 377.409L910.613 296.779C913.751 294.142 915.757 290.401 916.217 286.328L923.855 218.731C924.786 210.491 931.858 204.328 940.147 204.532L1017.85 206.442C1030.57 206.755 1038.55 192.798 1031.82 181.99L987.406 110.657C983.858 104.959 984.244 97.6533 988.371 92.3607L1022.45 48.6549C1023.48 47.3408 1024.29 45.8747 1024.86 44.3097L1041 0.171692" stroke="#F1E2D2" stroke-opacity="0.16" stroke-dasharray="4 6"/>
<g filter="url(#filter0_g_36_66)">
<mask id="path-2-outside-1_36_66" maskUnits="userSpaceOnUse" x="28" y="449.172" width="1041" height="840" fill="black">
<rect fill="white" x="28" y="449.172" width="1041" height="840"/>
<path d="M314.125 456.85L321.264 453.509L331.639 458.299L336.212 466.207L342.794 467.544L358.3 480.577L357.296 488.374L369.79 492.385L372.691 488.82L390.539 492.607L392.436 496.84L403.033 499.625L405.599 503.97L403.591 522.461L392.993 536.942L384.404 541.175L357.519 532.932L351.607 526.359L346.81 528.922L331.862 526.025L329.408 518.673L332.977 512.658L327.176 499.625L323.718 502.41L328.404 508.425L324.722 520.567L320.148 525.245L313.232 525.914L320.929 533.155L317.36 544.851L327.176 534.38L337.439 540.507L349.264 542.177L351.83 544.962L348.372 551.869L357.296 554.208L357.408 559.109L349.487 562.117L337.328 576.152L350.157 571.697L352.388 562.896L357.184 564.01L359.75 558.998L360.531 562.117L364.101 560.335L364.882 572.031L370.125 562.785L381.057 562.896L387.304 565.793L381.503 575.372L380.834 584.284L388.977 569.023L401.918 567.129L388.308 583.282L390.316 586.178L382.284 603.332L388.197 602.664L394.109 587.18L418.093 577.6L420.324 573.367L436.165 580.497L427.687 589.854L433.599 588.071L434.603 591.636L427.687 605.671L416.308 605.337L417.758 608.568L413.854 612.355L437.838 613.58L418.428 619.818L435.049 623.383L434.938 634.968L429.025 637.307L424.006 646.775L405.599 651.9L399.464 657.246L408.165 654.907L417.982 657.135L420.994 652.011L432.93 650.563L432.261 643.656L436.053 641.651L442.523 626.391L440.85 616.254L445.535 610.238L440.292 612.355L441.631 602.664L455.018 601.55L456.245 604.558L461.822 600.325L467.846 602.218L471.862 599.099L482.683 602.552L507.337 602.886L508.564 608.902L515.592 612.466L547.608 619.93L549.058 625.722L553.966 621.155L565.122 623.717L568.357 628.507L572.15 625.834L575.831 628.284L578.062 624.942L568.58 614.249H579.401L585.424 619.595L596.134 619.818L618.445 630.066L621.456 627.282L629.154 637.084L637.855 640.649L640.867 637.976L643.99 643.656L658.827 646.664L664.07 660.365L665.743 657.024L668.532 662.259L670.317 660.477L681.919 666.046L717.17 697.794L730.78 704.811L734.015 711.718L739.481 713.5L740.262 718.401L745.839 717.956L750.748 726.756L759.114 728.427L770.27 738.563L794.7 764.295L806.413 785.014L809.091 784.012L822.142 796.599L838.318 819.88L842.445 821.106L847.354 806.959L858.398 821.663L867.433 822.219L868.103 828.235L882.382 844.053L881.824 848.508L888.963 845.612L928.231 883.82L925.442 877.248L928.119 874.574L933.92 879.921L943.29 878.807L935.928 851.627L949.091 872.012L954.446 888.944L957.458 890.503L958.462 887.719L968.055 899.86L986.908 911.334L986.35 922.028L980.996 917.906L977.984 920.58L988.693 937.4L991.928 936.286L996.948 943.304L1001.86 936.62L1000.29 930.048L1004.87 929.602L1006.43 932.944L1007.77 928.934L1017.81 944.975L1027.4 943.861L1032.76 948.762L1038.89 965.248L1033.65 980.063L1036.33 989.866L1033.54 998.889L1041.9 1004.35L1044.58 1011.14L1041.57 1041.89L1046.03 1048.79L1055.18 1053.81L1060.31 1049.68L1062.88 1054.14L1058.97 1065.39L1066 1071.41L1061.43 1078.53L1062.43 1098.25L1055.85 1098.92L1058.64 1105.49L1051.61 1131.67L1012.34 1180.24L1010.78 1190.04L1003.08 1194.05L1001.63 1203.18L992.932 1213.77L972.852 1226.13L955.004 1245.4L912.836 1259.33L884.055 1276.59L867.099 1275.7L849.473 1284.28L820.804 1286.17L806.19 1281.05L788.788 1279.82L769.712 1273.81L743.497 1256.32L705.568 1240.5L674.891 1239.05L597.026 1219.22L584.42 1212.87L581.52 1203.3L572.261 1203.07L549.392 1178.9L541.695 1176.23L532.325 1177.79L525.185 1186.25L514.03 1188.37L507.225 1178.79L507.113 1166.2L479.225 1158.07L472.42 1159.41L469.073 1157.18L468.069 1149.83L465.057 1152.72L461.265 1148.04L462.826 1143.14L448.213 1135.12L445.424 1126.43L445.312 1137.91L441.631 1135.9L444.42 1148.82L436.723 1152.95L410.619 1131.34L394.555 1115.41L378.714 1091.46L378.603 1083.44L392.436 1076.86L376.372 1079.43L365.774 1070.74L356.181 1073.41L350.38 1070.85L344.244 1063.16L337.663 1068.73L327.734 1066.39L324.388 1073.41L309.886 1066.73L324.945 1077.98L331.192 1075.08L329.631 1069.96L337.663 1073.19L344.133 1078.76L338.555 1080.21L342.682 1085.78L349.264 1085.55L357.408 1090.23L360.308 1111.95L348.93 1119.64H359.304L372.579 1132.45L372.021 1136.46L379.607 1143.14L371.575 1145.26L373.695 1147.6L399.91 1160.41L416.754 1162.64L421.44 1167.65L420.324 1172.77L415.862 1167.76L406.045 1165.98L401.695 1177.9L383.065 1172.44L383.511 1177.67L362.204 1174.78L358.969 1177.12L355.734 1196.95L338.332 1198.84L351.607 1210.42L339.336 1206.08L341.567 1216.55L339.113 1220.23L304.196 1219L295.272 1195.94L283.893 1190.93L282.443 1169.99L264.148 1168.87L264.929 1164.98L242.061 1167.98L210.268 1165.76L199.112 1169.77L166.65 1172.88L139.542 1170.99L109.534 1178.01L83.319 1130L79.5261 1102.26L119.574 1031.97L128.052 1025.85L128.164 1020.72L153.04 987.527L159.176 954.666L131.845 929.491L103.956 870.23L49.0718 844.053L32.3386 767.748L54.0917 726.199L60.5619 695.789L35.5737 693.561L31 688.325L70.3786 655.13L79.0798 664.153L87.2233 657.135L97.0401 641.206L101.168 627.282L101.614 600.102L116.451 594.309L120.801 597.651L142.777 573.813L155.271 575.038L165.2 563.788L172.005 542.289L165.646 517.56L171.893 517.226L185.503 528.476L198.331 545.519L221.758 545.742L231.798 535.605L230.682 512.547L226.666 507.646L228.005 501.296L223.654 489.6L230.905 495.17L237.487 491.605L239.606 495.615L244.626 494.278L270.395 508.425V518.117L256.674 538.501L262.252 535.271L267.606 524.355L272.738 522.35L274.634 513.327L293.375 516.334L300.515 521.347L300.738 517.337L291.367 507.423L295.049 483.585L298.73 479.352L304.866 482.916L319.145 498.511L319.368 493.499L323.495 494.39L318.141 480.02L311.782 473.671L315.017 469.215L307.878 461.083L309.328 452.172L315.24 452.729L314.125 456.85Z"/>
</mask>
<path d="M314.125 456.85L321.264 453.509L331.639 458.299L336.212 466.207L342.794 467.544L358.3 480.577L357.296 488.374L369.79 492.385L372.691 488.82L390.539 492.607L392.436 496.84L403.033 499.625L405.599 503.97L403.591 522.461L392.993 536.942L384.404 541.175L357.519 532.932L351.607 526.359L346.81 528.922L331.862 526.025L329.408 518.673L332.977 512.658L327.176 499.625L323.718 502.41L328.404 508.425L324.722 520.567L320.148 525.245L313.232 525.914L320.929 533.155L317.36 544.851L327.176 534.38L337.439 540.507L349.264 542.177L351.83 544.962L348.372 551.869L357.296 554.208L357.408 559.109L349.487 562.117L337.328 576.152L350.157 571.697L352.388 562.896L357.184 564.01L359.75 558.998L360.531 562.117L364.101 560.335L364.882 572.031L370.125 562.785L381.057 562.896L387.304 565.793L381.503 575.372L380.834 584.284L388.977 569.023L401.918 567.129L388.308 583.282L390.316 586.178L382.284 603.332L388.197 602.664L394.109 587.18L418.093 577.6L420.324 573.367L436.165 580.497L427.687 589.854L433.599 588.071L434.603 591.636L427.687 605.671L416.308 605.337L417.758 608.568L413.854 612.355L437.838 613.58L418.428 619.818L435.049 623.383L434.938 634.968L429.025 637.307L424.006 646.775L405.599 651.9L399.464 657.246L408.165 654.907L417.982 657.135L420.994 652.011L432.93 650.563L432.261 643.656L436.053 641.651L442.523 626.391L440.85 616.254L445.535 610.238L440.292 612.355L441.631 602.664L455.018 601.55L456.245 604.558L461.822 600.325L467.846 602.218L471.862 599.099L482.683 602.552L507.337 602.886L508.564 608.902L515.592 612.466L547.608 619.93L549.058 625.722L553.966 621.155L565.122 623.717L568.357 628.507L572.15 625.834L575.831 628.284L578.062 624.942L568.58 614.249H579.401L585.424 619.595L596.134 619.818L618.445 630.066L621.456 627.282L629.154 637.084L637.855 640.649L640.867 637.976L643.99 643.656L658.827 646.664L664.07 660.365L665.743 657.024L668.532 662.259L670.317 660.477L681.919 666.046L717.17 697.794L730.78 704.811L734.015 711.718L739.481 713.5L740.262 718.401L745.839 717.956L750.748 726.756L759.114 728.427L770.27 738.563L794.7 764.295L806.413 785.014L809.091 784.012L822.142 796.599L838.318 819.88L842.445 821.106L847.354 806.959L858.398 821.663L867.433 822.219L868.103 828.235L882.382 844.053L881.824 848.508L888.963 845.612L928.231 883.82L925.442 877.248L928.119 874.574L933.92 879.921L943.29 878.807L935.928 851.627L949.091 872.012L954.446 888.944L957.458 890.503L958.462 887.719L968.055 899.86L986.908 911.334L986.35 922.028L980.996 917.906L977.984 920.58L988.693 937.4L991.928 936.286L996.948 943.304L1001.86 936.62L1000.29 930.048L1004.87 929.602L1006.43 932.944L1007.77 928.934L1017.81 944.975L1027.4 943.861L1032.76 948.762L1038.89 965.248L1033.65 980.063L1036.33 989.866L1033.54 998.889L1041.9 1004.35L1044.58 1011.14L1041.57 1041.89L1046.03 1048.79L1055.18 1053.81L1060.31 1049.68L1062.88 1054.14L1058.97 1065.39L1066 1071.41L1061.43 1078.53L1062.43 1098.25L1055.85 1098.92L1058.64 1105.49L1051.61 1131.67L1012.34 1180.24L1010.78 1190.04L1003.08 1194.05L1001.63 1203.18L992.932 1213.77L972.852 1226.13L955.004 1245.4L912.836 1259.33L884.055 1276.59L867.099 1275.7L849.473 1284.28L820.804 1286.17L806.19 1281.05L788.788 1279.82L769.712 1273.81L743.497 1256.32L705.568 1240.5L674.891 1239.05L597.026 1219.22L584.42 1212.87L581.52 1203.3L572.261 1203.07L549.392 1178.9L541.695 1176.23L532.325 1177.79L525.185 1186.25L514.03 1188.37L507.225 1178.79L507.113 1166.2L479.225 1158.07L472.42 1159.41L469.073 1157.18L468.069 1149.83L465.057 1152.72L461.265 1148.04L462.826 1143.14L448.213 1135.12L445.424 1126.43L445.312 1137.91L441.631 1135.9L444.42 1148.82L436.723 1152.95L410.619 1131.34L394.555 1115.41L378.714 1091.46L378.603 1083.44L392.436 1076.86L376.372 1079.43L365.774 1070.74L356.181 1073.41L350.38 1070.85L344.244 1063.16L337.663 1068.73L327.734 1066.39L324.388 1073.41L309.886 1066.73L324.945 1077.98L331.192 1075.08L329.631 1069.96L337.663 1073.19L344.133 1078.76L338.555 1080.21L342.682 1085.78L349.264 1085.55L357.408 1090.23L360.308 1111.95L348.93 1119.64H359.304L372.579 1132.45L372.021 1136.46L379.607 1143.14L371.575 1145.26L373.695 1147.6L399.91 1160.41L416.754 1162.64L421.44 1167.65L420.324 1172.77L415.862 1167.76L406.045 1165.98L401.695 1177.9L383.065 1172.44L383.511 1177.67L362.204 1174.78L358.969 1177.12L355.734 1196.95L338.332 1198.84L351.607 1210.42L339.336 1206.08L341.567 1216.55L339.113 1220.23L304.196 1219L295.272 1195.94L283.893 1190.93L282.443 1169.99L264.148 1168.87L264.929 1164.98L242.061 1167.98L210.268 1165.76L199.112 1169.77L166.65 1172.88L139.542 1170.99L109.534 1178.01L83.319 1130L79.5261 1102.26L119.574 1031.97L128.052 1025.85L128.164 1020.72L153.04 987.527L159.176 954.666L131.845 929.491L103.956 870.23L49.0718 844.053L32.3386 767.748L54.0917 726.199L60.5619 695.789L35.5737 693.561L31 688.325L70.3786 655.13L79.0798 664.153L87.2233 657.135L97.0401 641.206L101.168 627.282L101.614 600.102L116.451 594.309L120.801 597.651L142.777 573.813L155.271 575.038L165.2 563.788L172.005 542.289L165.646 517.56L171.893 517.226L185.503 528.476L198.331 545.519L221.758 545.742L231.798 535.605L230.682 512.547L226.666 507.646L228.005 501.296L223.654 489.6L230.905 495.17L237.487 491.605L239.606 495.615L244.626 494.278L270.395 508.425V518.117L256.674 538.501L262.252 535.271L267.606 524.355L272.738 522.35L274.634 513.327L293.375 516.334L300.515 521.347L300.738 517.337L291.367 507.423L295.049 483.585L298.73 479.352L304.866 482.916L319.145 498.511L319.368 493.499L323.495 494.39L318.141 480.02L311.782 473.671L315.017 469.215L307.878 461.083L309.328 452.172L315.24 452.729L314.125 456.85Z" stroke="#F1E2D2" stroke-opacity="0.16" stroke-width="4" mask="url(#path-2-outside-1_36_66)"/>
</g>
<circle cx="481" cy="1077.17" r="6" fill="#DE4300" stroke="#F1E2D2" stroke-width="4"/>
<defs>
<filter id="filter0_g_36_66" x="4.90362" y="426.754" width="1086.97" height="884.691" filterUnits="userSpaceOnUse" color-interpolation-filters="sRGB">
<feFlood flood-opacity="0" result="BackgroundImageFix"/>
<feBlend mode="normal" in="SourceGraphic" in2="BackgroundImageFix" result="shape"/>
<feTurbulence type="fractalNoise" baseFrequency="0.028672659769654274 0.028672659769654274" numOctaves="3" seed="5470" />
<feDisplacementMap in="shape" scale="46.501907348632812" xChannelSelector="R" yChannelSelector="G" result="displacedImage" width="100%" height="100%" />
<feMerge result="effect1_texture_36_66">
<feMergeNode in="displacedImage"/>
</feMerge>
</filter>
</defs>
</svg>
