<svg width="1532" height="3671" viewBox="0 0 1532 3671" fill="none" xmlns="http://www.w3.org/2000/svg">
<path d="M385.096 3670.67V3646.17C385.096 3630.84 385.096 3598.57 385.096 3592.17C385.096 3585.77 342.763 3560.17 321.596 3548.17C292.596 3526.84 235.196 3482.17 237.596 3474.17C239.946 3466.34 292.323 3429.76 319.857 3411.33C321.022 3410.55 322.269 3409.94 323.598 3409.5L400.608 3383.51C402.256 3382.96 403.984 3382.67 405.723 3382.67H467.725C472.403 3382.67 476.847 3384.72 479.886 3388.27L529.902 3446.77C530.696 3447.7 531.38 3448.72 531.943 3449.8L587.549 3556.98C590.834 3563.31 597.913 3566.7 604.905 3565.3L677.936 3550.62C685.094 3549.18 690.387 3543.08 690.59 3535.78C690.852 3526.34 690.892 3515.47 690.096 3510.17C688.596 3500.17 726.096 3448.17 729.096 3436.67C731.381 3427.91 767.972 3425.41 788.594 3425.19C790.587 3425.17 792.539 3425.54 794.399 3426.26C820.585 3436.29 871.553 3453.19 886.596 3448.17C906.096 3441.67 958.596 3436.67 970.096 3425.17C978.495 3416.77 1003.92 3406.9 1018.68 3401.95C1021.25 3401.09 1023.99 3400.95 1026.64 3401.48L1070.1 3410.17C1106.6 3420.01 1179.6 3439.07 1179.6 3436.67C1179.6 3433.67 1232.1 3354.67 1232.1 3335.17C1232.1 3321.32 1212.38 3272.54 1199.22 3242.18C1196.48 3235.88 1198 3228.54 1203.04 3223.88L1273.84 3158.6C1276.59 3156.06 1278.37 3152.64 1278.86 3148.93L1291.88 3050.55C1292.35 3047.06 1293.94 3043.82 1296.43 3041.34L1305.38 3032.39C1311.18 3026.59 1311.64 3017.34 1306.61 3010.86C1293.86 2994.43 1278.1 2972.52 1278.1 2966.17C1278.1 2956.17 1206.1 2933.67 1179.6 2927.17C1153.1 2920.67 1070.1 2899.17 1063.6 2887.67C1059.35 2880.16 1056.82 2847.5 1055.67 2823.6C1055.27 2815.41 1061.28 2808.35 1069.42 2807.27L1164.53 2794.67C1172.97 2793.55 1179.07 2786.02 1178.2 2777.55C1175.88 2754.74 1171.7 2722.9 1166.6 2709.17C1160.29 2692.22 1212.74 2679.38 1240.89 2674.86C1241.71 2674.73 1242.51 2674.67 1243.33 2674.67H1406.52C1409.2 2674.67 1411.83 2674 1414.17 2672.72L1522.75 2613.58C1529.14 2610.1 1532.38 2602.75 1530.61 2595.69C1520.59 2555.73 1504.21 2492.45 1500.6 2486.67C1497.01 2480.93 1437.01 2449.77 1398.36 2430.31C1391.31 2426.76 1382.74 2428.94 1378.18 2435.4L1356.43 2466.28C1355.54 2467.54 1354.49 2468.66 1353.28 2469.61L1289.31 2520.28C1282.93 2525.35 1273.76 2524.8 1268.02 2519.01L1224.04 2474.67C1220.05 2470.64 1218.47 2464.81 1220.01 2459.35C1223.63 2446.47 1228.92 2429.26 1232.1 2424.17C1237.1 2416.17 1225.6 2388.17 1217.6 2362.17C1209.6 2336.17 1183.1 2348.67 1153.6 2339.17C1124.1 2329.67 1107.6 2348.67 1093.1 2348.67C1082.11 2348.67 1050.23 2305.62 1033.29 2280.68C1031.52 2278.06 1030.6 2274.99 1030.6 2271.83V2238.16C1030.6 2233.41 1028.49 2228.91 1024.85 2225.87L980.19 2188.6C974.324 2183.7 965.815 2183.64 959.874 2188.44L929.998 2212.61C927.15 2214.91 923.598 2216.17 919.935 2216.17H891.096C882.26 2216.17 875.096 2209.01 875.096 2200.17C875.096 2187.75 875.096 2173.15 875.096 2165.17C875.096 2150.17 790.096 2142.67 781.596 2142.67C773.096 2142.67 708.096 2171.67 701.596 2180.17C696.799 2186.45 635.736 2168.52 598.827 2156.54C593.403 2154.78 589.384 2150.24 588.227 2144.65L579.478 2102.43C578.901 2099.64 577.591 2097.06 575.684 2094.95L537.019 2052.14C529.833 2044.18 517.007 2045.41 511.457 2054.58L482.903 2101.77C478.519 2109.02 469.248 2111.59 461.756 2107.64L331.143 2038.83C327.879 2037.11 325.31 2034.32 323.87 2030.92L306.596 1990.17L275.792 1937.49C273.445 1933.48 269.481 1930.69 264.91 1929.84C242.461 1925.65 205.42 1918.68 193.596 1916.17C181.452 1913.6 171.198 1899.25 166.65 1890.75C165.921 1889.38 165.473 1887.9 165.231 1886.37L154.183 1816.68C153.214 1810.57 155.854 1804.45 160.962 1800.96L190.516 1780.78C192.543 1779.39 194.86 1778.49 197.289 1778.15L285.096 1765.67H382.096L532.25 1786.23C536.619 1786.83 541.042 1785.6 544.473 1782.83L604.278 1734.54C605.81 1733.31 607.101 1731.8 608.086 1730.09L626.982 1697.34C628.368 1694.93 630.354 1692.93 632.747 1691.53L719.205 1640.83C722.672 1638.8 726.768 1638.15 730.703 1638.97C753.129 1643.63 791.894 1650.63 806.096 1649.17C821.696 1647.57 834.596 1626.84 839.096 1616.67C842.263 1610.17 846.696 1595.47 839.096 1588.67C834.089 1584.19 824.756 1584.38 816.73 1585.85C810.204 1587.04 803.234 1585.36 798.9 1580.33L775.074 1552.73C769.49 1546.26 769.966 1536.56 776.165 1530.67C800.138 1507.92 834.649 1475.12 839.096 1470.67C845.596 1464.17 904.596 1500.17 914.596 1518.17C922.596 1532.57 947.93 1524.17 959.596 1518.17L981.983 1503.01C992.734 1495.73 990.796 1479.36 978.642 1474.79L950.737 1464.3C943.006 1461.39 938.758 1453.08 940.931 1445.11L957.712 1383.58C958.911 1379.19 958.178 1374.49 955.698 1370.66L902.349 1288.43C897.332 1280.7 886.853 1278.78 879.468 1284.3C840.901 1313.1 782.208 1358.16 777.596 1366.67C773.283 1374.64 761.331 1366.63 753.101 1359.11C750.101 1356.37 748.596 1352.41 748.596 1348.34V1294.93C748.596 1292.78 748.163 1290.65 747.323 1288.67L728.736 1244.92C726.226 1239.01 720.428 1235.17 714.009 1235.17H646.033C645.077 1235.17 644.123 1235.26 643.183 1235.43L594.574 1244.23C589.559 1245.14 584.412 1243.6 580.714 1240.09L561.021 1221.42C558.786 1219.3 557.21 1216.58 556.483 1213.59L544.42 1163.91C542.316 1155.25 533.541 1149.98 524.807 1151.77C509.779 1154.84 490.685 1157.8 479.096 1156.67C466.384 1155.43 450.046 1152.31 439.072 1149.96C434.05 1148.88 429.929 1145.36 427.959 1140.62L418.457 1117.74C417.889 1116.38 417.596 1114.91 417.596 1113.43C417.596 1107.21 422.636 1102.17 428.852 1102.17H461.206C469.154 1102.17 475.596 1095.73 475.596 1087.78C475.596 1083.02 473.242 1078.57 469.306 1075.89L426.214 1046.54C420.976 1042.97 414.126 1042.83 408.747 1046.18L395.795 1054.25C390.493 1057.56 383.754 1057.47 378.537 1054.04L337.601 1027.09C331.436 1023.03 323.295 1023.71 317.895 1028.75L315.232 1031.23C309.414 1036.65 300.497 1036.97 294.299 1031.99L285.571 1024.98C281.794 1021.94 279.596 1017.35 279.596 1012.51V967.887C279.596 965.443 280.156 963.031 281.234 960.836L290.561 941.837C292.2 938.498 294.951 935.835 298.341 934.305L348.439 911.694C349.21 911.346 350.006 911.06 350.821 910.838L410.62 894.57C415.055 893.363 418.757 890.307 420.782 886.182L422.116 883.466C426.687 874.154 421.325 863.02 411.193 860.789L383.025 854.587C378.907 853.68 375.313 851.184 373.025 847.642L366.98 838.282C363.427 832.781 363.585 825.67 367.379 820.332L470.226 675.634C474.063 670.235 474.177 663.03 470.512 657.512L440.565 612.426C435.442 604.713 437.915 594.275 445.954 589.682L501.096 558.172L564.345 512.005C567.712 509.547 569.987 505.872 570.686 501.763L584.332 421.49C585.64 413.799 592.304 408.172 600.106 408.172H700.454C701.876 408.172 703.292 407.982 704.664 407.608L803.703 380.597C805.939 379.987 808.015 378.9 809.789 377.409L905.71 296.779C908.847 294.142 910.853 290.401 911.313 286.328L918.951 218.731C919.882 210.491 926.954 204.328 935.243 204.532L1012.94 206.442C1025.67 206.755 1033.65 192.798 1026.92 181.99L982.502 110.657C978.955 104.959 979.34 97.6533 983.467 92.3607L1017.55 48.6549C1018.57 47.3408 1019.39 45.8747 1019.96 44.3097L1036.1 0.171692" stroke="#F1E2D2" stroke-opacity="0.16" stroke-dasharray="4 6"/>
<g filter="url(#filter0_g_36_88)">
<mask id="path-2-outside-1_36_88" maskUnits="userSpaceOnUse" x="23.0964" y="459.172" width="1041" height="840" fill="black">
<rect fill="white" x="23.0964" y="459.172" width="1041" height="840"/>
<path d="M309.221 466.85L316.36 463.509L326.735 468.299L331.309 476.207L337.89 477.544L353.396 490.577L352.392 498.374L364.887 502.385L367.787 498.82L385.636 502.607L387.532 506.84L398.13 509.625L400.695 513.97L398.687 532.461L388.09 546.942L379.5 551.175L352.616 542.932L346.703 536.359L341.906 538.922L326.958 536.025L324.504 528.673L328.074 522.658L322.273 509.625L318.815 512.41L323.5 518.425L319.819 530.567L315.245 535.245L308.329 535.914L316.026 543.155L312.456 554.851L322.273 544.38L332.536 550.507L344.361 552.177L346.926 554.962L343.468 561.869L352.392 564.208L352.504 569.109L344.584 572.117L332.424 586.152L345.253 581.697L347.484 572.896L352.281 574.01L354.847 568.998L355.628 572.117L359.197 570.335L359.978 582.031L365.221 572.785L376.153 572.896L382.401 575.793L376.6 585.372L375.93 594.284L384.074 579.023L397.014 577.129L383.405 593.282L385.412 596.178L377.381 613.332L383.293 612.664L389.205 597.18L413.189 587.6L415.421 583.367L431.261 590.497L422.783 599.854L428.695 598.071L429.7 601.636L422.783 615.671L411.405 615.337L412.855 618.568L408.95 622.355L432.935 623.58L413.524 629.818L430.146 633.383L430.034 644.968L424.122 647.307L419.102 656.775L400.695 661.9L394.56 667.246L403.261 664.907L413.078 667.135L416.09 662.011L428.026 660.563L427.357 653.656L431.15 651.651L437.62 636.391L435.947 626.254L440.632 620.238L435.389 622.355L436.727 612.664L450.114 611.55L451.341 614.558L456.919 610.325L462.943 612.218L466.959 609.099L477.779 612.552L502.433 612.886L503.66 618.902L510.688 622.466L542.704 629.93L544.154 635.722L549.063 631.155L560.218 633.717L563.453 638.507L567.246 635.834L570.927 638.284L573.158 634.942L563.676 624.249H574.497L580.521 629.595L591.23 629.818L613.541 640.066L616.553 637.282L624.25 647.084L632.951 650.649L635.963 647.976L639.087 653.656L653.923 656.664L659.167 670.365L660.84 667.024L663.629 672.259L665.414 670.477L677.015 676.046L712.266 707.794L725.876 714.811L729.111 721.718L734.577 723.5L735.358 728.401L740.936 727.956L745.844 736.756L754.211 738.427L765.366 748.563L789.797 774.295L801.51 795.014L804.187 794.012L817.239 806.599L833.414 829.88L837.542 831.106L842.45 816.959L853.494 831.663L862.53 832.219L863.199 838.235L877.478 854.053L876.92 858.508L884.06 855.612L923.327 893.82L920.538 887.248L923.215 884.574L929.016 889.921L938.387 888.807L931.024 861.627L944.188 882.012L949.542 898.944L952.554 900.503L953.558 897.719L963.152 909.86L982.004 921.334L981.447 932.028L976.092 927.906L973.08 930.58L983.789 947.4L987.024 946.286L992.044 953.304L996.953 946.62L995.391 940.048L999.965 939.602L1001.53 942.944L1002.87 938.934L1012.91 954.975L1022.5 953.861L1027.85 958.762L1033.99 975.248L1028.75 990.063L1031.42 999.866L1028.63 1008.89L1037 1014.35L1039.68 1021.14L1036.67 1051.89L1041.13 1058.79L1050.28 1063.81L1055.41 1059.68L1057.97 1064.14L1054.07 1075.39L1061.1 1081.41L1056.52 1088.53L1057.53 1108.25L1050.94 1108.92L1053.73 1115.49L1046.71 1141.67L1007.44 1190.24L1005.88 1200.04L998.18 1204.05L996.73 1213.18L988.028 1223.77L967.949 1236.13L950.1 1255.4L907.932 1269.33L879.151 1286.59L862.195 1285.7L844.57 1294.28L815.9 1296.17L801.287 1291.05L783.884 1289.82L764.808 1283.81L738.593 1266.32L700.665 1250.5L669.987 1249.05L592.123 1229.22L579.517 1222.87L576.616 1213.3L567.357 1213.07L544.489 1188.9L536.792 1186.23L527.421 1187.79L520.282 1196.25L509.126 1198.37L502.321 1188.79L502.21 1176.2L474.321 1168.07L467.516 1169.41L464.17 1167.18L463.166 1159.83L460.154 1162.72L456.361 1158.04L457.923 1153.14L443.309 1145.12L440.52 1136.43L440.409 1147.91L436.727 1145.9L439.516 1158.82L431.819 1162.95L405.715 1141.34L389.652 1125.41L373.811 1101.46L373.699 1093.44L387.532 1086.86L371.468 1089.43L360.871 1080.74L351.277 1083.41L345.476 1080.85L339.341 1073.16L332.759 1078.73L322.831 1076.39L319.484 1083.41L304.982 1076.73L320.042 1087.98L326.289 1085.08L324.727 1079.96L332.759 1083.19L339.229 1088.76L333.651 1090.21L337.779 1095.78L344.361 1095.55L352.504 1100.23L355.404 1121.95L344.026 1129.64H354.4L367.675 1142.45L367.118 1146.46L374.703 1153.14L366.671 1155.26L368.791 1157.6L395.006 1170.41L411.851 1172.64L416.536 1177.65L415.421 1182.77L410.958 1177.76L401.142 1175.98L396.791 1187.9L378.161 1182.44L378.608 1187.67L357.301 1184.78L354.066 1187.12L350.831 1206.95L333.428 1208.84L346.703 1220.42L334.432 1216.08L336.663 1226.55L334.209 1230.23L299.293 1229L290.368 1205.94L278.99 1200.93L277.54 1179.99L259.245 1178.87L260.026 1174.98L237.157 1177.98L205.364 1175.76L194.209 1179.77L161.746 1182.88L134.639 1180.99L104.631 1188.01L78.4153 1140L74.6224 1112.26L114.67 1041.97L123.149 1035.85L123.26 1030.72L148.137 997.527L154.272 964.666L126.941 939.491L99.0528 880.23L44.1682 854.053L27.435 777.748L49.1881 736.199L55.6583 705.789L30.6701 703.561L26.0964 698.325L65.475 665.13L74.1762 674.153L82.3197 667.135L92.1364 651.206L96.264 637.282L96.7102 610.102L111.547 604.309L115.898 607.651L137.874 583.813L150.368 585.038L160.296 573.788L167.101 552.289L160.742 527.56L166.989 527.226L180.599 538.476L193.428 555.519L216.854 555.742L226.894 545.605L225.778 522.547L221.762 517.646L223.101 511.296L218.75 499.6L226.002 505.17L232.583 501.605L234.703 505.615L239.723 504.278L265.492 518.425V528.117L251.771 548.501L257.348 545.271L262.703 534.355L267.834 532.35L269.731 523.327L288.472 526.334L295.611 531.347L295.834 527.337L286.464 517.423L290.145 493.585L293.826 489.352L299.962 492.916L314.241 508.511L314.464 503.499L318.592 504.39L313.237 490.02L306.878 483.671L310.113 479.215L302.974 471.083L304.424 462.172L310.337 462.729L309.221 466.85Z"/>
</mask>
<path d="M309.221 466.85L316.36 463.509L326.735 468.299L331.309 476.207L337.89 477.544L353.396 490.577L352.392 498.374L364.887 502.385L367.787 498.82L385.636 502.607L387.532 506.84L398.13 509.625L400.695 513.97L398.687 532.461L388.09 546.942L379.5 551.175L352.616 542.932L346.703 536.359L341.906 538.922L326.958 536.025L324.504 528.673L328.074 522.658L322.273 509.625L318.815 512.41L323.5 518.425L319.819 530.567L315.245 535.245L308.329 535.914L316.026 543.155L312.456 554.851L322.273 544.38L332.536 550.507L344.361 552.177L346.926 554.962L343.468 561.869L352.392 564.208L352.504 569.109L344.584 572.117L332.424 586.152L345.253 581.697L347.484 572.896L352.281 574.01L354.847 568.998L355.628 572.117L359.197 570.335L359.978 582.031L365.221 572.785L376.153 572.896L382.401 575.793L376.6 585.372L375.93 594.284L384.074 579.023L397.014 577.129L383.405 593.282L385.412 596.178L377.381 613.332L383.293 612.664L389.205 597.18L413.189 587.6L415.421 583.367L431.261 590.497L422.783 599.854L428.695 598.071L429.7 601.636L422.783 615.671L411.405 615.337L412.855 618.568L408.95 622.355L432.935 623.58L413.524 629.818L430.146 633.383L430.034 644.968L424.122 647.307L419.102 656.775L400.695 661.9L394.56 667.246L403.261 664.907L413.078 667.135L416.09 662.011L428.026 660.563L427.357 653.656L431.15 651.651L437.62 636.391L435.947 626.254L440.632 620.238L435.389 622.355L436.727 612.664L450.114 611.55L451.341 614.558L456.919 610.325L462.943 612.218L466.959 609.099L477.779 612.552L502.433 612.886L503.66 618.902L510.688 622.466L542.704 629.93L544.154 635.722L549.063 631.155L560.218 633.717L563.453 638.507L567.246 635.834L570.927 638.284L573.158 634.942L563.676 624.249H574.497L580.521 629.595L591.23 629.818L613.541 640.066L616.553 637.282L624.25 647.084L632.951 650.649L635.963 647.976L639.087 653.656L653.923 656.664L659.167 670.365L660.84 667.024L663.629 672.259L665.414 670.477L677.015 676.046L712.266 707.794L725.876 714.811L729.111 721.718L734.577 723.5L735.358 728.401L740.936 727.956L745.844 736.756L754.211 738.427L765.366 748.563L789.797 774.295L801.51 795.014L804.187 794.012L817.239 806.599L833.414 829.88L837.542 831.106L842.45 816.959L853.494 831.663L862.53 832.219L863.199 838.235L877.478 854.053L876.92 858.508L884.06 855.612L923.327 893.82L920.538 887.248L923.215 884.574L929.016 889.921L938.387 888.807L931.024 861.627L944.188 882.012L949.542 898.944L952.554 900.503L953.558 897.719L963.152 909.86L982.004 921.334L981.447 932.028L976.092 927.906L973.08 930.58L983.789 947.4L987.024 946.286L992.044 953.304L996.953 946.62L995.391 940.048L999.965 939.602L1001.53 942.944L1002.87 938.934L1012.91 954.975L1022.5 953.861L1027.85 958.762L1033.99 975.248L1028.75 990.063L1031.42 999.866L1028.63 1008.89L1037 1014.35L1039.68 1021.14L1036.67 1051.89L1041.13 1058.79L1050.28 1063.81L1055.41 1059.68L1057.97 1064.14L1054.07 1075.39L1061.1 1081.41L1056.52 1088.53L1057.53 1108.25L1050.94 1108.92L1053.73 1115.49L1046.71 1141.67L1007.44 1190.24L1005.88 1200.04L998.18 1204.05L996.73 1213.18L988.028 1223.77L967.949 1236.13L950.1 1255.4L907.932 1269.33L879.151 1286.59L862.195 1285.7L844.57 1294.28L815.9 1296.17L801.287 1291.05L783.884 1289.82L764.808 1283.81L738.593 1266.32L700.665 1250.5L669.987 1249.05L592.123 1229.22L579.517 1222.87L576.616 1213.3L567.357 1213.07L544.489 1188.9L536.792 1186.23L527.421 1187.79L520.282 1196.25L509.126 1198.37L502.321 1188.79L502.21 1176.2L474.321 1168.07L467.516 1169.41L464.17 1167.18L463.166 1159.83L460.154 1162.72L456.361 1158.04L457.923 1153.14L443.309 1145.12L440.52 1136.43L440.409 1147.91L436.727 1145.9L439.516 1158.82L431.819 1162.95L405.715 1141.34L389.652 1125.41L373.811 1101.46L373.699 1093.44L387.532 1086.86L371.468 1089.43L360.871 1080.74L351.277 1083.41L345.476 1080.85L339.341 1073.16L332.759 1078.73L322.831 1076.39L319.484 1083.41L304.982 1076.73L320.042 1087.98L326.289 1085.08L324.727 1079.96L332.759 1083.19L339.229 1088.76L333.651 1090.21L337.779 1095.78L344.361 1095.55L352.504 1100.23L355.404 1121.95L344.026 1129.64H354.4L367.675 1142.45L367.118 1146.46L374.703 1153.14L366.671 1155.26L368.791 1157.6L395.006 1170.41L411.851 1172.64L416.536 1177.65L415.421 1182.77L410.958 1177.76L401.142 1175.98L396.791 1187.9L378.161 1182.44L378.608 1187.67L357.301 1184.78L354.066 1187.12L350.831 1206.95L333.428 1208.84L346.703 1220.42L334.432 1216.08L336.663 1226.55L334.209 1230.23L299.293 1229L290.368 1205.94L278.99 1200.93L277.54 1179.99L259.245 1178.87L260.026 1174.98L237.157 1177.98L205.364 1175.76L194.209 1179.77L161.746 1182.88L134.639 1180.99L104.631 1188.01L78.4153 1140L74.6224 1112.26L114.67 1041.97L123.149 1035.85L123.26 1030.72L148.137 997.527L154.272 964.666L126.941 939.491L99.0528 880.23L44.1682 854.053L27.435 777.748L49.1881 736.199L55.6583 705.789L30.6701 703.561L26.0964 698.325L65.475 665.13L74.1762 674.153L82.3197 667.135L92.1364 651.206L96.264 637.282L96.7102 610.102L111.547 604.309L115.898 607.651L137.874 583.813L150.368 585.038L160.296 573.788L167.101 552.289L160.742 527.56L166.989 527.226L180.599 538.476L193.428 555.519L216.854 555.742L226.894 545.605L225.778 522.547L221.762 517.646L223.101 511.296L218.75 499.6L226.002 505.17L232.583 501.605L234.703 505.615L239.723 504.278L265.492 518.425V528.117L251.771 548.501L257.348 545.271L262.703 534.355L267.834 532.35L269.731 523.327L288.472 526.334L295.611 531.347L295.834 527.337L286.464 517.423L290.145 493.585L293.826 489.352L299.962 492.916L314.241 508.511L314.464 503.499L318.592 504.39L313.237 490.02L306.878 483.671L310.113 479.215L302.974 471.083L304.424 462.172L310.337 462.729L309.221 466.85Z" stroke="#F1E2D2" stroke-opacity="0.16" stroke-width="4" mask="url(#path-2-outside-1_36_88)"/>
</g>
<circle cx="476.096" cy="1087.17" r="6" fill="#DE4300" stroke="#F1E2D2" stroke-width="4"/>
<defs>
<filter id="filter0_g_36_88" x="-7.62939e-06" y="436.754" width="1086.97" height="884.691" filterUnits="userSpaceOnUse" color-interpolation-filters="sRGB">
<feFlood flood-opacity="0" result="BackgroundImageFix"/>
<feBlend mode="normal" in="SourceGraphic" in2="BackgroundImageFix" result="shape"/>
<feTurbulence type="fractalNoise" baseFrequency="0.028672659769654274 0.028672659769654274" numOctaves="3" seed="5470" />
<feDisplacementMap in="shape" scale="46.501907348632812" xChannelSelector="R" yChannelSelector="G" result="displacedImage" width="100%" height="100%" />
<feMerge result="effect1_texture_36_88">
<feMergeNode in="displacedImage"/>
</feMerge>
</filter>
</defs>
</svg>
