<svg width="1087" height="923" viewBox="0 0 1087 923" fill="none" xmlns="http://www.w3.org/2000/svg">
<g filter="url(#filter0_g_35_48)">
<mask id="path-1-outside-1_35_48" maskUnits="userSpaceOnUse" x="23.0964" y="22.4175" width="1041" height="840" fill="black">
<rect fill="white" x="23.0964" y="22.4175" width="1041" height="840"/>
<path d="M309.221 30.0962L316.36 26.7545L326.735 31.5444L331.309 39.4532L337.89 40.7898L353.396 53.823L352.392 61.6203L364.887 65.6306L367.787 62.0659L385.636 65.8533L387.532 70.0863L398.13 72.8711L400.695 77.2156L398.687 95.7065L388.09 110.188L379.5 114.421L352.616 106.177L346.703 99.6053L341.906 102.168L326.958 99.2712L324.504 91.9192L328.074 85.9042L322.273 72.8711L318.815 75.6559L323.5 81.6712L319.819 93.813L315.245 98.4913L308.329 99.16L316.026 106.4L312.456 118.097L322.273 107.626L332.536 113.752L344.361 115.423L346.926 118.208L343.468 125.114L352.392 127.454L352.504 132.355L344.584 135.363L332.424 149.398L345.253 144.942L347.484 136.142L352.281 137.256L354.847 132.244L355.628 135.363L359.197 133.58L359.978 145.277L365.221 136.031L376.153 136.142L382.401 139.039L376.6 148.618L375.93 157.53L384.074 142.269L397.014 140.375L383.405 156.527L385.412 159.423L377.381 176.578L383.293 175.91L389.205 160.426L413.189 150.846L415.421 146.613L431.261 153.743L422.783 163.1L428.695 161.317L429.7 164.882L422.783 178.917L411.405 178.583L412.855 181.813L408.95 185.601L432.935 186.826L413.524 193.064L430.146 196.629L430.034 208.214L424.122 210.553L419.102 220.021L400.695 225.146L394.56 230.492L403.261 228.153L413.078 230.381L416.09 225.257L428.026 223.809L427.357 216.902L431.15 214.897L437.62 199.636L435.947 189.5L440.632 183.484L435.389 185.601L436.727 175.91L450.114 174.796L451.341 177.803L456.919 173.57L462.943 175.464L466.959 172.345L477.779 175.798L502.433 176.132L503.66 182.148L510.688 185.712L542.704 193.175L544.154 198.968L549.063 194.401L560.218 196.963L563.453 201.753L567.246 199.08L570.927 201.53L573.158 198.188L563.676 187.495H574.497L580.521 192.841L591.23 193.064L613.541 203.312L616.553 200.527L624.25 210.33L632.951 213.895L635.963 211.221L639.087 216.902L653.923 219.91L659.167 233.611L660.84 230.27L663.629 235.505L665.414 233.723L677.015 239.292L712.266 271.039L725.876 278.057L729.111 284.964L734.577 286.746L735.358 291.647L740.936 291.202L745.844 300.002L754.211 301.672L765.366 311.809L789.797 337.541L801.51 358.26L804.187 357.258L817.239 369.845L833.414 393.126L837.542 394.352L842.45 380.204L853.494 394.908L862.53 395.465L863.199 401.481L877.478 417.299L876.92 421.754L884.06 418.858L923.327 457.066L920.538 450.493L923.215 447.82L929.016 453.167L938.387 452.053L931.024 424.873L944.188 445.258L949.542 462.19L952.554 463.749L953.558 460.964L963.152 473.106L982.004 484.58L981.447 495.274L976.092 491.152L973.08 493.826L983.789 510.646L987.024 509.532L992.044 516.55L996.953 509.866L995.391 503.294L999.965 502.848L1001.53 506.19L1002.87 502.18L1012.91 518.221L1022.5 517.107L1027.85 522.008L1033.99 538.494L1028.75 553.309L1031.42 563.112L1028.63 572.135L1037 577.593L1039.68 584.388L1036.67 615.132L1041.13 622.039L1050.28 627.051L1055.41 622.93L1057.97 627.386L1054.07 638.636L1061.1 644.652L1056.52 651.781L1057.53 671.497L1050.94 672.166L1053.73 678.738L1046.71 704.915L1007.44 753.483L1005.88 763.285L998.18 767.295L996.729 776.43L988.028 787.012L967.949 799.377L950.1 818.648L907.932 832.572L879.151 849.838L862.195 848.947L844.57 857.524L815.9 859.418L801.287 854.293L783.884 853.068L764.808 847.053L738.593 829.564L700.665 813.746L669.987 812.298L592.122 792.47L579.517 786.121L576.616 776.541L567.357 776.318L544.489 752.146L536.792 749.472L527.421 751.032L520.282 759.498L509.126 761.614L502.321 752.034L502.21 739.447L474.321 731.316L467.516 732.652L464.17 730.424L463.166 723.072L460.154 725.969L456.361 721.29L457.923 716.389L443.309 708.368L440.52 699.68L440.409 711.153L436.727 709.148L439.516 722.07L431.819 726.191L405.715 704.581L389.652 688.652L373.811 664.702L373.699 656.682L387.532 650.11L371.468 652.672L360.871 643.983L351.277 646.657L345.476 644.095L339.341 636.408L332.759 641.978L322.831 639.639L319.484 646.657L304.982 639.973L320.042 651.224L326.289 648.328L324.727 643.204L332.759 646.434L339.229 652.003L333.651 653.452L337.779 659.021L344.361 658.799L352.504 663.477L355.404 685.199L344.026 692.885H354.4L367.675 705.695L367.118 709.705L374.703 716.389L366.671 718.505L368.791 720.845L395.006 733.655L411.851 735.882L416.536 740.895L415.421 746.019L410.958 741.007L401.142 739.224L396.791 751.143L378.161 745.685L378.608 750.92L357.301 748.024L354.066 750.364L350.831 770.192L333.428 772.085L346.703 783.67L334.432 779.326L336.663 789.797L334.209 793.473L299.293 792.248L290.368 769.189L278.99 764.176L277.54 743.234L259.245 742.121L260.026 738.222L237.157 741.229L205.364 739.001L194.209 743.012L161.746 746.131L134.639 744.237L104.631 751.255L78.4153 703.244L74.6224 675.508L114.67 605.219L123.149 599.092L123.26 593.968L148.137 560.772L154.272 527.912L126.941 502.737L99.0528 443.476L44.1682 417.299L27.435 340.994L49.1881 299.444L55.6583 269.034L30.6701 266.806L26.0964 261.571L65.475 228.376L74.1762 237.398L82.3197 230.381L92.1365 214.452L96.264 200.527L96.7102 173.347L111.547 167.555L115.898 170.897L137.874 147.059L150.368 148.284L160.296 137.034L167.101 115.535L160.742 90.8055L166.989 90.4714L180.599 101.722L193.428 118.765L216.854 118.988L226.894 108.851L225.778 85.7927L221.762 80.8914L223.101 74.5419L218.75 62.8458L226.002 68.4154L232.583 64.8508L234.703 68.8611L239.723 67.5241L265.492 81.6712V91.3624L251.771 111.747L257.348 108.517L262.703 97.6004L267.834 95.5954L269.731 86.5726L288.472 89.58L295.611 94.5929L295.834 90.5825L286.464 80.6687L290.145 56.8305L293.826 52.5975L299.962 56.1621L314.241 71.7571L314.464 66.7446L318.592 67.6356L313.237 53.2658L306.878 46.9167L310.113 42.4607L302.974 34.3292L304.424 25.4175L310.337 25.9747L309.221 30.0962Z"/>
</mask>
<path d="M309.221 30.0962L316.36 26.7545L326.735 31.5444L331.309 39.4532L337.89 40.7898L353.396 53.823L352.392 61.6203L364.887 65.6306L367.787 62.0659L385.636 65.8533L387.532 70.0863L398.13 72.8711L400.695 77.2156L398.687 95.7065L388.09 110.188L379.5 114.421L352.616 106.177L346.703 99.6053L341.906 102.168L326.958 99.2712L324.504 91.9192L328.074 85.9042L322.273 72.8711L318.815 75.6559L323.5 81.6712L319.819 93.813L315.245 98.4913L308.329 99.16L316.026 106.4L312.456 118.097L322.273 107.626L332.536 113.752L344.361 115.423L346.926 118.208L343.468 125.114L352.392 127.454L352.504 132.355L344.584 135.363L332.424 149.398L345.253 144.942L347.484 136.142L352.281 137.256L354.847 132.244L355.628 135.363L359.197 133.58L359.978 145.277L365.221 136.031L376.153 136.142L382.401 139.039L376.6 148.618L375.93 157.53L384.074 142.269L397.014 140.375L383.405 156.527L385.412 159.423L377.381 176.578L383.293 175.91L389.205 160.426L413.189 150.846L415.421 146.613L431.261 153.743L422.783 163.1L428.695 161.317L429.7 164.882L422.783 178.917L411.405 178.583L412.855 181.813L408.95 185.601L432.935 186.826L413.524 193.064L430.146 196.629L430.034 208.214L424.122 210.553L419.102 220.021L400.695 225.146L394.56 230.492L403.261 228.153L413.078 230.381L416.09 225.257L428.026 223.809L427.357 216.902L431.15 214.897L437.62 199.636L435.947 189.5L440.632 183.484L435.389 185.601L436.727 175.91L450.114 174.796L451.341 177.803L456.919 173.57L462.943 175.464L466.959 172.345L477.779 175.798L502.433 176.132L503.66 182.148L510.688 185.712L542.704 193.175L544.154 198.968L549.063 194.401L560.218 196.963L563.453 201.753L567.246 199.08L570.927 201.53L573.158 198.188L563.676 187.495H574.497L580.521 192.841L591.23 193.064L613.541 203.312L616.553 200.527L624.25 210.33L632.951 213.895L635.963 211.221L639.087 216.902L653.923 219.91L659.167 233.611L660.84 230.27L663.629 235.505L665.414 233.723L677.015 239.292L712.266 271.039L725.876 278.057L729.111 284.964L734.577 286.746L735.358 291.647L740.936 291.202L745.844 300.002L754.211 301.672L765.366 311.809L789.797 337.541L801.51 358.26L804.187 357.258L817.239 369.845L833.414 393.126L837.542 394.352L842.45 380.204L853.494 394.908L862.53 395.465L863.199 401.481L877.478 417.299L876.92 421.754L884.06 418.858L923.327 457.066L920.538 450.493L923.215 447.82L929.016 453.167L938.387 452.053L931.024 424.873L944.188 445.258L949.542 462.19L952.554 463.749L953.558 460.964L963.152 473.106L982.004 484.58L981.447 495.274L976.092 491.152L973.08 493.826L983.789 510.646L987.024 509.532L992.044 516.55L996.953 509.866L995.391 503.294L999.965 502.848L1001.53 506.19L1002.87 502.18L1012.91 518.221L1022.5 517.107L1027.85 522.008L1033.99 538.494L1028.75 553.309L1031.42 563.112L1028.63 572.135L1037 577.593L1039.68 584.388L1036.67 615.132L1041.13 622.039L1050.28 627.051L1055.41 622.93L1057.97 627.386L1054.07 638.636L1061.1 644.652L1056.52 651.781L1057.53 671.497L1050.94 672.166L1053.73 678.738L1046.71 704.915L1007.44 753.483L1005.88 763.285L998.18 767.295L996.729 776.43L988.028 787.012L967.949 799.377L950.1 818.648L907.932 832.572L879.151 849.838L862.195 848.947L844.57 857.524L815.9 859.418L801.287 854.293L783.884 853.068L764.808 847.053L738.593 829.564L700.665 813.746L669.987 812.298L592.122 792.47L579.517 786.121L576.616 776.541L567.357 776.318L544.489 752.146L536.792 749.472L527.421 751.032L520.282 759.498L509.126 761.614L502.321 752.034L502.21 739.447L474.321 731.316L467.516 732.652L464.17 730.424L463.166 723.072L460.154 725.969L456.361 721.29L457.923 716.389L443.309 708.368L440.52 699.68L440.409 711.153L436.727 709.148L439.516 722.07L431.819 726.191L405.715 704.581L389.652 688.652L373.811 664.702L373.699 656.682L387.532 650.11L371.468 652.672L360.871 643.983L351.277 646.657L345.476 644.095L339.341 636.408L332.759 641.978L322.831 639.639L319.484 646.657L304.982 639.973L320.042 651.224L326.289 648.328L324.727 643.204L332.759 646.434L339.229 652.003L333.651 653.452L337.779 659.021L344.361 658.799L352.504 663.477L355.404 685.199L344.026 692.885H354.4L367.675 705.695L367.118 709.705L374.703 716.389L366.671 718.505L368.791 720.845L395.006 733.655L411.851 735.882L416.536 740.895L415.421 746.019L410.958 741.007L401.142 739.224L396.791 751.143L378.161 745.685L378.608 750.92L357.301 748.024L354.066 750.364L350.831 770.192L333.428 772.085L346.703 783.67L334.432 779.326L336.663 789.797L334.209 793.473L299.293 792.248L290.368 769.189L278.99 764.176L277.54 743.234L259.245 742.121L260.026 738.222L237.157 741.229L205.364 739.001L194.209 743.012L161.746 746.131L134.639 744.237L104.631 751.255L78.4153 703.244L74.6224 675.508L114.67 605.219L123.149 599.092L123.26 593.968L148.137 560.772L154.272 527.912L126.941 502.737L99.0528 443.476L44.1682 417.299L27.435 340.994L49.1881 299.444L55.6583 269.034L30.6701 266.806L26.0964 261.571L65.475 228.376L74.1762 237.398L82.3197 230.381L92.1365 214.452L96.264 200.527L96.7102 173.347L111.547 167.555L115.898 170.897L137.874 147.059L150.368 148.284L160.296 137.034L167.101 115.535L160.742 90.8055L166.989 90.4714L180.599 101.722L193.428 118.765L216.854 118.988L226.894 108.851L225.778 85.7927L221.762 80.8914L223.101 74.5419L218.75 62.8458L226.002 68.4154L232.583 64.8508L234.703 68.8611L239.723 67.5241L265.492 81.6712V91.3624L251.771 111.747L257.348 108.517L262.703 97.6004L267.834 95.5954L269.731 86.5726L288.472 89.58L295.611 94.5929L295.834 90.5825L286.464 80.6687L290.145 56.8305L293.826 52.5975L299.962 56.1621L314.241 71.7571L314.464 66.7446L318.592 67.6356L313.237 53.2658L306.878 46.9167L310.113 42.4607L302.974 34.3292L304.424 25.4175L310.337 25.9747L309.221 30.0962Z" stroke="#F1E2D2" stroke-opacity="0.16" stroke-width="4" mask="url(#path-1-outside-1_35_48)"/>
</g>
<circle cx="665.096" cy="888.418" r="6" fill="#DE4300" stroke="#F1E2D2" stroke-width="4"/>
<circle cx="476.096" cy="650.418" r="6" fill="#DE4300" stroke="#F1E2D2" stroke-width="4"/>
<defs>
<filter id="filter0_g_35_48" x="-7.62939e-06" y="0" width="1086.97" height="884.691" filterUnits="userSpaceOnUse" color-interpolation-filters="sRGB">
<feFlood flood-opacity="0" result="BackgroundImageFix"/>
<feBlend mode="normal" in="SourceGraphic" in2="BackgroundImageFix" result="shape"/>
<feTurbulence type="fractalNoise" baseFrequency="0.028672659769654274 0.028672659769654274" numOctaves="3" seed="5470" />
<feDisplacementMap in="shape" scale="46.501907348632812" xChannelSelector="R" yChannelSelector="G" result="displacedImage" width="100%" height="100%" />
<feMerge result="effect1_texture_35_48">
<feMergeNode in="displacedImage"/>
</feMerge>
</filter>
</defs>
</svg>
