<svg width="1333" height="1351" viewBox="0 0 1333 1351" fill="none" xmlns="http://www.w3.org/2000/svg">
<g clip-path="url(#clip0_39_722)">
<g filter="url(#filter0_g_39_722)">
<mask id="mask0_39_722" style="mask-type:luminance" maskUnits="userSpaceOnUse" x="57" y="40" width="1041" height="841">
<path d="M1098 40.1699H57V880.17H1098V40.1699Z" fill="white"/>
<path d="M343.125 47.8501L350.264 44.51L360.639 49.3L365.212 57.21L371.794 58.54L387.3 71.5801L386.296 79.3701L398.79 83.3799L401.691 79.8201L419.539 83.6101L421.436 87.8401L432.033 90.6299L434.599 94.97L432.591 113.46L421.993 127.94L413.404 132.17L386.519 123.93L380.607 117.36L375.81 119.92L360.862 117.03L358.408 109.67L361.977 103.66L356.176 90.6299L352.718 93.4099L357.404 99.4299L353.722 111.57L349.148 116.25L342.232 116.91L349.929 124.15L346.36 135.85L356.176 125.38L366.439 131.51L378.264 133.18L380.83 135.96L377.372 142.87L386.296 145.21L386.408 150.11L378.487 153.12L366.328 167.15L379.157 162.7L381.388 153.9L386.184 155.01L388.75 150L389.531 153.12L393.101 151.33L393.882 163.03L399.125 153.79L410.057 153.9L416.304 156.79L410.503 166.37L409.834 175.28L417.977 160.02L430.918 158.13L417.308 174.28L419.316 177.18L411.284 194.33L417.197 193.66L423.109 178.18L447.093 168.6L449.324 164.37L465.165 171.5L456.687 180.85L462.599 179.07L463.603 182.64L456.687 196.67L445.308 196.34L446.758 199.57L442.854 203.35L466.838 204.58L447.428 210.82L464.049 214.38L463.938 225.97L458.025 228.31L453.006 237.78L434.599 242.9L428.464 248.25L437.165 245.91L446.982 248.14L449.994 243.01L461.93 241.56L461.261 234.66L465.053 232.65L471.523 217.39L469.85 207.25L474.535 201.24L469.292 203.35L470.631 193.66L484.018 192.55L485.245 195.56L490.822 191.32L496.846 193.22L500.862 190.1L511.683 193.55L536.337 193.89L537.564 199.9L544.592 203.47L576.608 210.93L578.058 216.72L582.966 212.16L594.122 214.72L597.357 219.51L601.15 216.83L604.831 219.28L607.062 215.94L597.58 205.25H608.401L614.424 210.6L625.134 210.82L647.445 221.07L650.456 218.28L658.154 228.08L666.855 231.65L669.867 228.98L672.99 234.66L687.827 237.66L693.07 251.37L694.743 248.02L697.532 253.26L699.317 251.48L710.919 257.05L746.17 288.79L759.78 295.81L763.01 302.72L768.48 304.5L769.26 309.4L774.84 308.96L779.75 317.76L788.11 319.43L799.27 329.56L823.7 355.3L835.41 376.01L838.09 375.01L851.14 387.6L867.32 410.88L871.45 412.11L876.35 397.96L887.4 412.66L896.43 413.22L897.1 419.23L911.38 435.05L910.82 439.51L917.96 436.61L957.23 474.82L954.44 468.25L957.12 465.57L962.92 470.92L972.29 469.81L964.93 442.63L978.09 463.01L983.45 479.94L986.46 481.5L987.46 478.72L997.06 490.86L1015.91 502.33L1015.35 513.03L1010 508.91L1006.98 511.58L1017.69 528.4L1020.93 527.29L1025.95 534.3L1030.86 527.62L1029.29 521.05L1033.87 520.6L1035.43 523.94L1036.77 519.93L1046.81 535.97L1056.4 534.86L1061.76 539.76L1067.89 556.25L1062.65 571.06L1065.33 580.87L1062.54 589.89L1070.9 595.35L1073.58 602.14L1070.57 632.89L1075.03 639.79L1084.18 644.81L1089.31 640.68L1091.88 645.14L1087.97 656.39L1095 662.41L1090.43 669.53L1091.43 689.25L1084.85 689.92L1087.64 696.49L1080.61 722.67L1041.34 771.24L1039.78 781.04L1032.08 785.05L1030.63 794.18L1021.93 804.77L1001.85 817.13L984 836.4L941.84 850.33L913.06 867.59L896.1 866.7L878.47 875.28L849.8 877.17L835.19 872.05L817.79 870.82L798.71 864.81L772.5 847.32L734.57 831.5L703.891 830.05L626.026 810.22L613.42 803.87L610.52 794.3L601.261 794.07L578.392 769.9L570.695 767.23L561.325 768.79L554.185 777.25L543.03 779.37L536.225 769.79L536.113 757.2L508.225 749.07L501.42 750.41L498.073 748.18L497.069 740.83L494.057 743.72L490.265 739.04L491.826 734.14L477.213 726.12L474.424 717.43L474.312 728.91L470.631 726.9L473.42 739.82L465.723 743.95L439.619 722.34L423.555 706.41L407.714 682.46L407.603 674.44L421.436 667.86L405.372 670.43L394.774 661.74L385.181 664.41L379.38 661.85L373.244 654.16L366.663 659.73L356.734 657.39L353.388 664.41L338.886 657.73L353.945 668.98L360.192 666.08L358.631 660.96L366.663 664.19L373.133 669.76L367.555 671.21L371.682 676.78L378.264 676.55L386.408 681.23L389.308 702.95L377.93 710.64H388.304L401.579 723.45L401.021 727.46L408.607 734.14L400.575 736.26L402.695 738.6L428.91 751.41L445.754 753.64L450.44 758.65L449.324 763.77L444.862 758.76L435.045 756.98L430.695 768.9L412.065 763.44L412.511 768.67L391.204 765.78L387.969 768.12L384.734 787.95L367.332 789.84L380.607 801.42L368.336 797.08L370.567 807.55L368.113 811.23L333.196 810L324.272 786.94L312.893 781.93L311.443 760.99L293.148 759.87L293.929 755.98L271.061 758.98L239.268 756.76L228.112 760.77L195.65 763.88L168.542 761.99L138.534 769.01L112.319 721L108.526 693.26L148.574 622.97L157.052 616.85L157.164 611.72L182.04 578.53L188.176 545.67L160.845 520.49L132.956 461.23L78.072 435.05L61.339 358.75L83.092 317.2L89.562 286.79L64.574 284.56L60 279.33L99.379 246.13L108.08 255.15L116.223 248.14L126.04 232.21L130.168 218.28L130.614 191.1L145.451 185.31L149.801 188.65L171.777 164.81L184.271 166.04L194.2 154.79L201.005 133.29L194.646 108.56L200.893 108.23L214.503 119.48L227.331 136.52L250.758 136.74L260.798 126.61L259.682 103.55L255.666 98.6499L257.005 92.3L252.654 80.6001L259.905 86.1699L266.487 82.6001L268.606 86.6201L273.626 85.28L299.395 99.4299V109.12L285.674 129.5L291.252 126.27L296.606 115.35L301.738 113.35L303.634 104.33L322.375 107.33L329.515 112.35L329.738 108.34L320.367 98.4199L324.049 74.5801L327.73 70.3501L333.866 73.9199L348.145 89.51L348.368 84.5L352.495 85.3899L347.141 71.02L340.782 64.6699L344.017 60.21L336.878 52.0801L338.328 43.1699L344.24 43.73L343.125 47.8501Z" fill="black"/>
</mask>
<g mask="url(#mask0_39_722)">
<path d="M343.125 47.8501L350.264 44.51L360.639 49.3L365.212 57.21L371.794 58.54L387.3 71.5801L386.296 79.3701L398.79 83.3799L401.691 79.8201L419.539 83.6101L421.436 87.8401L432.033 90.6299L434.599 94.97L432.591 113.46L421.993 127.94L413.404 132.17L386.519 123.93L380.607 117.36L375.81 119.92L360.862 117.03L358.408 109.67L361.977 103.66L356.176 90.6299L352.718 93.4099L357.404 99.4299L353.722 111.57L349.148 116.25L342.232 116.91L349.929 124.15L346.36 135.85L356.176 125.38L366.439 131.51L378.264 133.18L380.83 135.96L377.372 142.87L386.296 145.21L386.408 150.11L378.487 153.12L366.328 167.15L379.157 162.7L381.388 153.9L386.184 155.01L388.75 150L389.531 153.12L393.101 151.33L393.882 163.03L399.125 153.79L410.057 153.9L416.304 156.79L410.503 166.37L409.834 175.28L417.977 160.02L430.918 158.13L417.308 174.28L419.316 177.18L411.284 194.33L417.197 193.66L423.109 178.18L447.093 168.6L449.324 164.37L465.165 171.5L456.687 180.85L462.599 179.07L463.603 182.64L456.687 196.67L445.308 196.34L446.758 199.57L442.854 203.35L466.838 204.58L447.428 210.82L464.049 214.38L463.938 225.97L458.025 228.31L453.006 237.78L434.599 242.9L428.464 248.25L437.165 245.91L446.982 248.14L449.994 243.01L461.93 241.56L461.261 234.66L465.053 232.65L471.523 217.39L469.85 207.25L474.535 201.24L469.292 203.35L470.631 193.66L484.018 192.55L485.245 195.56L490.822 191.32L496.846 193.22L500.862 190.1L511.683 193.55L536.337 193.89L537.564 199.9L544.592 203.47L576.608 210.93L578.058 216.72L582.966 212.16L594.122 214.72L597.357 219.51L601.15 216.83L604.831 219.28L607.062 215.94L597.58 205.25H608.401L614.424 210.6L625.134 210.82L647.445 221.07L650.456 218.28L658.154 228.08L666.855 231.65L669.867 228.98L672.99 234.66L687.827 237.66L693.07 251.37L694.743 248.02L697.532 253.26L699.317 251.48L710.919 257.05L746.17 288.79L759.78 295.81L763.01 302.72L768.48 304.5L769.26 309.4L774.84 308.96L779.75 317.76L788.11 319.43L799.27 329.56L823.7 355.3L835.41 376.01L838.09 375.01L851.14 387.6L867.32 410.88L871.45 412.11L876.35 397.96L887.4 412.66L896.43 413.22L897.1 419.23L911.38 435.05L910.82 439.51L917.96 436.61L957.23 474.82L954.44 468.25L957.12 465.57L962.92 470.92L972.29 469.81L964.93 442.63L978.09 463.01L983.45 479.94L986.46 481.5L987.46 478.72L997.06 490.86L1015.91 502.33L1015.35 513.03L1010 508.91L1006.98 511.58L1017.69 528.4L1020.93 527.29L1025.95 534.3L1030.86 527.62L1029.29 521.05L1033.87 520.6L1035.43 523.94L1036.77 519.93L1046.81 535.97L1056.4 534.86L1061.76 539.76L1067.89 556.25L1062.65 571.06L1065.33 580.87L1062.54 589.89L1070.9 595.35L1073.58 602.14L1070.57 632.89L1075.03 639.79L1084.18 644.81L1089.31 640.68L1091.88 645.14L1087.97 656.39L1095 662.41L1090.43 669.53L1091.43 689.25L1084.85 689.92L1087.64 696.49L1080.61 722.67L1041.34 771.24L1039.78 781.04L1032.08 785.05L1030.63 794.18L1021.93 804.77L1001.85 817.13L984 836.4L941.84 850.33L913.06 867.59L896.1 866.7L878.47 875.28L849.8 877.17L835.19 872.05L817.79 870.82L798.71 864.81L772.5 847.32L734.57 831.5L703.891 830.05L626.026 810.22L613.42 803.87L610.52 794.3L601.261 794.07L578.392 769.9L570.695 767.23L561.325 768.79L554.185 777.25L543.03 779.37L536.225 769.79L536.113 757.2L508.225 749.07L501.42 750.41L498.073 748.18L497.069 740.83L494.057 743.72L490.265 739.04L491.826 734.14L477.213 726.12L474.424 717.43L474.312 728.91L470.631 726.9L473.42 739.82L465.723 743.95L439.619 722.34L423.555 706.41L407.714 682.46L407.603 674.44L421.436 667.86L405.372 670.43L394.774 661.74L385.181 664.41L379.38 661.85L373.244 654.16L366.663 659.73L356.734 657.39L353.388 664.41L338.886 657.73L353.945 668.98L360.192 666.08L358.631 660.96L366.663 664.19L373.133 669.76L367.555 671.21L371.682 676.78L378.264 676.55L386.408 681.23L389.308 702.95L377.93 710.64H388.304L401.579 723.45L401.021 727.46L408.607 734.14L400.575 736.26L402.695 738.6L428.91 751.41L445.754 753.64L450.44 758.65L449.324 763.77L444.862 758.76L435.045 756.98L430.695 768.9L412.065 763.44L412.511 768.67L391.204 765.78L387.969 768.12L384.734 787.95L367.332 789.84L380.607 801.42L368.336 797.08L370.567 807.55L368.113 811.23L333.196 810L324.272 786.94L312.893 781.93L311.443 760.99L293.148 759.87L293.929 755.98L271.061 758.98L239.268 756.76L228.112 760.77L195.65 763.88L168.542 761.99L138.534 769.01L112.319 721L108.526 693.26L148.574 622.97L157.052 616.85L157.164 611.72L182.04 578.53L188.176 545.67L160.845 520.49L132.956 461.23L78.072 435.05L61.339 358.75L83.092 317.2L89.562 286.79L64.574 284.56L60 279.33L99.379 246.13L108.08 255.15L116.223 248.14L126.04 232.21L130.168 218.28L130.614 191.1L145.451 185.31L149.801 188.65L171.777 164.81L184.271 166.04L194.2 154.79L201.005 133.29L194.646 108.56L200.893 108.23L214.503 119.48L227.331 136.52L250.758 136.74L260.798 126.61L259.682 103.55L255.666 98.6499L257.005 92.3L252.654 80.6001L259.905 86.1699L266.487 82.6001L268.606 86.6201L273.626 85.28L299.395 99.4299V109.12L285.674 129.5L291.252 126.27L296.606 115.35L301.738 113.35L303.634 104.33L322.375 107.33L329.515 112.35L329.738 108.34L320.367 98.4199L324.049 74.5801L327.73 70.3501L333.866 73.9199L348.145 89.51L348.368 84.5L352.495 85.3899L347.141 71.02L340.782 64.6699L344.017 60.21L336.878 52.0801L338.328 43.1699L344.24 43.73L343.125 47.8501Z" stroke="#F1E2D2" stroke-opacity="0.16" stroke-width="4"/>
</g>
</g>
<path d="M510 674.17C513.314 674.17 516 671.484 516 668.17C516 664.856 513.314 662.17 510 662.17C506.686 662.17 504 664.856 504 668.17C504 671.484 506.686 674.17 510 674.17Z" fill="#DE4300" stroke="#F1E2D2" stroke-width="4"/>
<path d="M424.5 1077.67V1053.17C424.5 1037.84 424.5 1005.57 424.5 999.17C424.5 992.77 382.167 967.17 361 955.17C332 933.84 274.6 889.17 277 881.17C279.35 873.34 331.726 836.76 359.26 818.33C360.426 817.55 361.673 816.94 363.002 816.5L440.011 790.51C441.659 789.96 443.387 789.67 445.127 789.67H507.129C511.807 789.67 516.25 791.72 519.29 795.27L569.305 853.77C570.099 854.7 570.784 855.72 571.347 856.8L626.953 963.98C630.238 970.31 637.316 973.7 644.309 972.3L717.34 957.62C724.497 956.18 729.791 950.08 729.994 942.78C730.256 933.34 730.295 922.47 729.5 917.17C728 907.17 765.5 855.17 768.5 843.67C770.78 834.91 807.38 832.41 828 832.19C829.99 832.17 831.94 832.54 833.8 833.26C859.99 843.29 910.96 860.19 926 855.17C945.5 848.67 998 843.67 1009.5 832.17C1017.9 823.77 1043.32 813.9 1058.09 808.95C1060.65 808.09 1063.39 807.95 1066.04 808.48L1109.5 817.17C1146 827 1219 846.07 1219 843.67C1219 840.67 1271.5 761.67 1271.5 742.17C1271.5 728.32 1251.79 679.54 1238.62 649.18C1235.89 642.88 1237.4 635.54 1242.45 630.88L1313.24 565.6C1315.99 563.06 1317.77 559.64 1318.26 555.93L1331.29 457.55C1331.75 454.06 1333.35 450.82 1335.84 448.34L1344.78 439.39C1350.58 433.59 1351.05 424.34 1346.01 417.86C1333.26 401.43 1317.5 379.52 1317.5 373.17C1317.5 363.17 1245.5 340.67 1219 334.17C1192.5 327.67 1109.5 306.17 1103 294.67C1098.76 287.16 1096.22 254.5 1095.07 230.6C1094.68 222.41 1100.69 215.35 1108.82 214.27L1203.93 201.67C1212.38 200.55 1218.47 193.02 1217.61 184.55C1215.28 161.74 1211.11 129.9 1206 116.17C1199.69 99.2199 1252.14 86.3701 1280.3 81.8601C1281.11 81.7301 1281.91 81.6699 1282.74 81.6699H1445.92C1448.6 81.6699 1451.23 81 1453.58 79.72L1562.15 20.5801C1568.54 17.1001 1571.78 9.74994 1570.01 2.68994C1560 -37.2701 1543.61 -100.55 1540 -106.33C1536.41 -112.07 1476.41 -143.23 1437.77 -162.69C1430.71 -166.24 1422.14 -164.06 1417.59 -157.6L1395.83 -126.72C1394.95 -125.46 1393.89 -124.34 1392.69 -123.39L1328.72 -72.72C1322.33 -67.66 1313.16 -68.2 1307.42 -73.99L1263.45 -118.33C1259.45 -122.36 1257.87 -128.19 1259.41 -133.65C1263.04 -146.53 1268.32 -163.74 1271.5 -168.83C1276.5 -176.83 1265 -204.83 1257 -230.83C1249 -256.83 1222.5 -244.33 1193 -253.83C1163.5 -263.33 1147 -244.33 1132.5 -244.33C1121.51 -244.33 1089.63 -287.38 1072.7 -312.32C1070.92 -314.94 1070 -318.01 1070 -321.17V-354.84C1070 -359.59 1067.89 -364.09 1064.25 -367.13L1019.59 -404.4C1013.73 -409.3 1005.22 -409.36 999.28 -404.56L969.4 -380.39C966.55 -378.09 963 -376.83 959.34 -376.83H930.5C921.66 -376.83 914.5 -383.99 914.5 -392.83C914.5 -405.25 914.5 -419.85 914.5 -427.83C914.5 -442.83 829.5 -450.33 821 -450.33C812.5 -450.33 747.5 -421.33 741 -412.83C736.2 -406.55 675.14 -424.48 638.23 -436.46C632.807 -438.22 628.788 -442.76 627.631 -448.35L618.881 -490.57C618.304 -493.36 616.995 -495.94 615.088 -498.05L576.423 -540.86C569.236 -548.82 556.411 -547.59 550.86 -538.42L522.306 -491.23C517.922 -483.98 508.652 -481.41 501.159 -485.36L370.547 -554.17C367.283 -555.89 364.713 -558.68 363.274 -562.08L346 -602.83L315.196 -655.51C312.849 -659.52 308.884 -662.31 304.314 -663.16C281.865 -667.35 244.823 -674.32 233 -676.83C220.855 -679.4 210.601 -693.75 206.054 -702.25C205.324 -703.62 204.877 -705.1 204.635 -706.63L193.586 -776.32C192.618 -782.43 195.257 -788.55 200.365 -792.04L229.92 -812.22C231.946 -813.61 234.263 -814.51 236.693 -814.85L324.5 -827.33H421.5L571.654 -806.77C576.023 -806.17 580.445 -807.4 583.876 -810.17L643.681 -858.46C645.214 -859.69 646.505 -861.2 647.489 -862.91L666.385 -895.66C667.771 -898.07 669.758 -900.07 672.151 -901.47L758.61 -952.17C762.08 -954.2 766.17 -954.85 770.11 -954.03C792.53 -949.37 831.3 -942.37 845.5 -943.83C861.1 -945.43 874 -966.16 878.5 -976.33C881.67 -982.83 886.1 -997.53 878.5 -1004.33C873.49 -1008.81 864.16 -1008.62 856.13 -1007.15C849.61 -1005.96 842.64 -1007.64 838.3 -1012.67L814.48 -1040.27C808.89 -1046.74 809.37 -1056.44 815.57 -1062.33C839.54 -1085.08 874.05 -1117.88 878.5 -1122.33C885 -1128.83 944 -1092.83 954 -1074.83C962 -1060.43 987.33 -1068.83 999 -1074.83L1021.39 -1089.99C1032.14 -1097.27 1030.2 -1113.64 1018.05 -1118.21L990.14 -1128.7C982.41 -1131.61 978.16 -1139.92 980.33 -1147.89L997.12 -1209.42C998.31 -1213.81 997.58 -1218.51 995.1 -1222.34L941.75 -1304.57C936.74 -1312.3 926.26 -1314.22 918.87 -1308.7C880.3 -1279.9 821.61 -1234.84 817 -1226.33C812.69 -1218.36 800.73 -1226.37 792.5 -1233.89C789.5 -1236.63 788 -1240.59 788 -1244.66V-1298.07C788 -1300.22 787.57 -1302.35 786.73 -1304.33L768.14 -1348.08C765.63 -1353.99 759.83 -1357.83 753.41 -1357.83H685.437C684.481 -1357.83 683.527 -1357.74 682.586 -1357.57L633.977 -1348.77C628.963 -1347.86 623.815 -1349.4 620.117 -1352.91L600.425 -1371.58C598.189 -1373.7 596.613 -1376.42 595.886 -1379.41L583.823 -1429.09C581.72 -1437.75 572.945 -1443.02 564.211 -1441.23C549.182 -1438.16 530.088 -1435.2 518.5 -1436.33C505.787 -1437.57 489.45 -1440.69 478.476 -1443.04C473.454 -1444.12 469.333 -1447.64 467.363 -1452.38L457.861 -1475.26C457.293 -1476.62 457 -1478.09 457 -1479.57C457 -1485.79 462.039 -1490.83 468.255 -1490.83H500.61C508.557 -1490.83 515 -1497.27 515 -1505.22C515 -1509.98 512.645 -1514.43 508.71 -1517.11L465.617 -1546.46C460.379 -1550.03 453.53 -1550.17 448.151 -1546.82L435.198 -1538.75C429.897 -1535.44 423.158 -1535.53 417.94 -1538.96L377.005 -1565.91C370.84 -1569.97 362.699 -1569.29 357.299 -1564.25L354.635 -1561.77C348.817 -1556.35 339.901 -1556.03 333.703 -1561.01L324.975 -1568.02C321.197 -1571.06 319 -1575.65 319 -1580.49V-1625.11C319 -1627.56 319.56 -1629.97 320.637 -1632.16L329.964 -1651.16C331.603 -1654.5 334.355 -1657.16 337.745 -1658.7L387.843 -1681.31C388.613 -1681.65 389.41 -1681.94 390.225 -1682.16L450.024 -1698.43C454.459 -1699.64 458.161 -1702.69 460.186 -1706.82L461.519 -1709.53C466.091 -1718.85 460.728 -1729.98 450.597 -1732.21L422.429 -1738.41C418.31 -1739.32 414.717 -1741.82 412.429 -1745.36L406.384 -1754.72C402.831 -1760.22 402.989 -1767.33 406.783 -1772.67L509.63 -1917.37C513.467 -1922.77 513.581 -1929.97 509.916 -1935.49L479.968 -1980.57C474.845 -1988.29 477.319 -1998.72 485.358 -2003.32L540.5 -2034.83L603.749 -2081C607.116 -2083.45 609.391 -2087.13 610.09 -2091.24L623.736 -2171.51C625.043 -2179.2 631.708 -2184.83 639.51 -2184.83H739.86C741.28 -2184.83 742.7 -2185.02 744.07 -2185.39L843.11 -2212.4C845.34 -2213.01 847.42 -2214.1 849.19 -2215.59L945.11 -2296.22C948.25 -2298.86 950.26 -2302.6 950.72 -2306.67L958.35 -2374.27C959.29 -2382.51 966.36 -2388.67 974.65 -2388.47L1052.35 -2386.56C1065.07 -2386.24 1073.05 -2400.2 1066.32 -2411.01L1021.91 -2482.34C1018.36 -2488.04 1018.74 -2495.35 1022.87 -2500.64L1056.95 -2544.35C1057.98 -2545.66 1058.79 -2547.13 1059.36 -2548.69L1075.5 -2592.83" stroke="#F1E2D2" stroke-opacity="0.16" stroke-dasharray="4 6"/>
<path d="M419 3251.67V3227.17C419 3211.84 419 3179.57 419 3173.17C419 3166.77 376.667 3141.17 355.5 3129.17C326.5 3107.84 269.1 3063.17 271.5 3055.17C273.85 3047.34 326.226 3010.76 353.76 2992.33C354.926 2991.55 356.173 2990.94 357.502 2990.5L434.511 2964.51C436.159 2963.96 437.887 2963.67 439.627 2963.67H501.629C506.307 2963.67 510.75 2965.72 513.79 2969.27L563.805 3027.77C564.599 3028.7 565.284 3029.72 565.847 3030.8L621.453 3137.98C624.738 3144.31 631.816 3147.7 638.809 3146.3L711.84 3131.62C718.997 3130.18 724.291 3124.08 724.494 3116.78C724.756 3107.34 724.795 3096.47 724 3091.17C722.5 3081.17 760 3029.17 763 3017.67C765.28 3008.91 801.88 3006.41 822.5 3006.19C824.49 3006.17 826.44 3006.54 828.3 3007.26C854.49 3017.29 905.46 3034.19 920.5 3029.17C940 3022.67 992.5 3017.67 1004 3006.17C1012.4 2997.77 1037.82 2987.9 1052.59 2982.95C1055.15 2982.09 1057.89 2981.95 1060.54 2982.48L1104 2991.17C1140.5 3001 1213.5 3020.07 1213.5 3017.67C1213.5 3014.67 1266 2935.67 1266 2916.17C1266 2902.32 1246.29 2853.54 1233.12 2823.18C1230.39 2816.88 1231.9 2809.54 1236.95 2804.88L1307.74 2739.6C1310.49 2737.06 1312.27 2733.64 1312.76 2729.93L1325.79 2631.55C1326.25 2628.06 1327.85 2624.82 1330.34 2622.34L1339.28 2613.39C1345.08 2607.59 1345.55 2598.34 1340.51 2591.86C1327.76 2575.43 1312 2553.52 1312 2547.17C1312 2537.17 1240 2514.67 1213.5 2508.17C1187 2501.67 1104 2480.17 1097.5 2468.67C1093.26 2461.16 1090.72 2428.5 1089.57 2404.6C1089.18 2396.41 1095.19 2389.35 1103.32 2388.27L1198.43 2375.67C1206.88 2374.55 1212.97 2367.02 1212.11 2358.55C1209.78 2335.74 1205.61 2303.9 1200.5 2290.17C1194.19 2273.22 1246.64 2260.37 1274.8 2255.86C1275.61 2255.73 1276.41 2255.67 1277.24 2255.67H1440.42C1443.1 2255.67 1445.73 2255 1448.08 2253.72L1556.65 2194.58C1563.04 2191.1 1566.28 2183.75 1564.51 2176.69C1554.5 2136.73 1538.11 2073.45 1534.5 2067.67C1530.91 2061.93 1470.91 2030.77 1432.27 2011.31C1425.21 2007.76 1416.64 2009.94 1412.09 2016.4L1390.33 2047.28C1389.45 2048.54 1388.39 2049.66 1387.19 2050.61L1323.22 2101.28C1316.83 2106.34 1307.66 2105.8 1301.92 2100.01L1257.95 2055.67C1253.95 2051.64 1252.37 2045.81 1253.91 2040.35C1257.54 2027.47 1262.82 2010.26 1266 2005.17C1271 1997.17 1259.5 1969.17 1251.5 1943.17C1243.5 1917.17 1217 1929.67 1187.5 1920.17C1158 1910.67 1141.5 1929.67 1127 1929.67C1116.01 1929.67 1084.13 1886.62 1067.2 1861.68C1065.42 1859.06 1064.5 1855.99 1064.5 1852.83V1819.16C1064.5 1814.41 1062.39 1809.91 1058.75 1806.87L1014.09 1769.6C1008.23 1764.7 999.72 1764.64 993.78 1769.44L963.9 1793.61C961.05 1795.91 957.5 1797.17 953.84 1797.17H925C916.16 1797.17 909 1790.01 909 1781.17C909 1768.75 909 1754.15 909 1746.17C909 1731.17 824 1723.67 815.5 1723.67C807 1723.67 742 1752.67 735.5 1761.17C730.702 1767.45 669.64 1749.52 632.73 1737.54C627.307 1735.78 623.288 1731.24 622.131 1725.65L613.381 1683.43C612.804 1680.64 611.495 1678.06 609.588 1675.95L570.923 1633.14C563.736 1625.18 550.911 1626.41 545.36 1635.58L516.806 1682.77C512.422 1690.02 503.152 1692.59 495.659 1688.64L365.047 1619.83C361.783 1618.11 359.213 1615.32 357.774 1611.92L340.5 1571.17L309.696 1518.49C307.349 1514.48 303.384 1511.69 298.814 1510.84C276.365 1506.65 239.323 1499.68 227.5 1497.17C215.355 1494.6 205.101 1480.25 200.554 1471.75C199.824 1470.38 199.377 1468.9 199.135 1467.37L188.086 1397.68C187.118 1391.57 189.757 1385.45 194.865 1381.96L224.42 1361.78C226.446 1360.39 228.763 1359.49 231.193 1359.15L319 1346.67H416L566.154 1367.23C570.523 1367.83 574.945 1366.6 578.376 1363.83L638.181 1315.54C639.714 1314.31 641.005 1312.8 641.989 1311.09L660.885 1278.34C662.271 1275.93 664.258 1273.93 666.651 1272.53L753.11 1221.83C756.58 1219.8 760.67 1219.15 764.61 1219.97C787.03 1224.63 825.8 1231.63 840 1230.17C855.6 1228.57 868.5 1207.84 873 1197.67C876.17 1191.17 880.6 1176.47 873 1169.67C867.99 1165.19 858.66 1165.38 850.63 1166.85C844.11 1168.04 837.14 1166.36 832.8 1161.33L808.98 1133.73C803.39 1127.26 803.87 1117.56 810.07 1111.67C834.04 1088.92 868.55 1056.12 873 1051.67C879.5 1045.17 938.5 1081.17 948.5 1099.17C956.5 1113.57 981.83 1105.17 993.5 1099.17L1015.89 1084.01C1026.64 1076.73 1024.7 1060.36 1012.55 1055.79L984.64 1045.3C976.91 1042.39 972.66 1034.08 974.83 1026.11L991.62 964.58C992.81 960.19 992.08 955.49 989.6 951.66L936.25 869.43C931.24 861.7 920.76 859.78 913.37 865.3C874.8 894.1 816.11 939.16 811.5 947.67C807.19 955.64 795.23 947.63 787 940.11C784 937.37 782.5 933.41 782.5 929.34V875.93C782.5 873.78 782.07 871.65 781.23 869.67L762.64 825.92C760.13 820.01 754.33 816.17 747.91 816.17H679.937C678.981 816.17 678.027 816.26 677.086 816.43L628.477 825.23C623.463 826.14 618.315 824.6 614.617 821.09L594.925 802.42C592.689 800.3 591.113 797.58 590.386 794.59L578.323 744.91C576.22 736.25 567.445 730.98 558.711 732.77C543.682 735.84 524.588 738.8 513 737.67C500.287 736.43 483.95 733.31 472.976 730.96C467.954 729.88 463.833 726.36 461.863 721.62L452.361 698.74C451.793 697.38 451.5 695.91 451.5 694.43C451.5 688.21 456.539 683.17 462.755 683.17H495.11C503.057 683.17 509.5 676.73 509.5 668.78C509.5 664.02 507.145 659.57 503.21 656.89L460.117 627.54C454.879 623.97 448.03 623.83 442.651 627.18L429.698 635.25C424.397 638.56 417.658 638.47 412.44 635.04L371.505 608.09C365.34 604.03 357.199 604.71 351.799 609.75L349.135 612.23C343.317 617.65 334.401 617.97 328.203 612.99L319.475 605.98C315.697 602.94 313.5 598.35 313.5 593.51V548.89C313.5 546.44 314.06 544.03 315.137 541.84L324.464 522.84C326.103 519.5 328.855 516.83 332.245 515.3L382.343 492.69C383.113 492.35 383.91 492.06 384.725 491.84L444.524 475.57C448.959 474.36 452.661 471.31 454.686 467.18L456.019 464.47C460.591 455.15 455.228 444.02 445.097 441.79L416.929 435.59C412.81 434.68 409.217 432.18 406.929 428.64L400.884 419.28C397.331 413.78 397.489 406.67 401.283 401.33L504.13 256.63C507.967 251.24 508.081 244.03 504.416 238.51L474.468 193.43C469.345 185.71 471.819 175.28 479.858 170.68L535 139.17L598.249 93C601.616 90.55 603.891 86.87 604.59 82.76L618.236 2.48999C619.543 -5.20001 626.208 -10.8301 634.01 -10.8301H734.36C735.78 -10.8301 737.2 -11.0199 738.57 -11.3899L837.61 -38.3999C839.84 -39.0099 841.92 -40.1001 843.69 -41.5901L939.61 -122.22C942.75 -124.86 944.76 -128.6 945.22 -132.67L952.85 -200.27C953.79 -208.51 960.86 -214.67 969.15 -214.47L1046.85 -212.56C1059.57 -212.24 1067.55 -226.2 1060.82 -237.01L1016.41 -308.34C1012.86 -314.04 1013.24 -321.35 1017.37 -326.64L1051.45 -370.35C1052.48 -371.66 1053.29 -373.13 1053.86 -374.69L1070 -418.83" stroke="#F1E2D2" stroke-opacity="0.16" stroke-dasharray="4 6"/>
<g filter="url(#filter1_g_39_722)">
<mask id="mask1_39_722" style="mask-type:luminance" maskUnits="userSpaceOnUse" x="57" y="40" width="1041" height="841">
<path d="M1098 40.1699H57V880.17H1098V40.1699Z" fill="white"/>
<path d="M343.125 47.8501L350.264 44.51L360.639 49.3L365.212 57.21L371.794 58.54L387.3 71.5801L386.296 79.3701L398.79 83.3799L401.691 79.8201L419.539 83.6101L421.436 87.8401L432.033 90.6299L434.599 94.97L432.591 113.46L421.993 127.94L413.404 132.17L386.519 123.93L380.607 117.36L375.81 119.92L360.862 117.03L358.408 109.67L361.977 103.66L356.176 90.6299L352.718 93.4099L357.404 99.4299L353.722 111.57L349.148 116.25L342.232 116.91L349.929 124.15L346.36 135.85L356.176 125.38L366.439 131.51L378.264 133.18L380.83 135.96L377.372 142.87L386.296 145.21L386.408 150.11L378.487 153.12L366.328 167.15L379.157 162.7L381.388 153.9L386.184 155.01L388.75 150L389.531 153.12L393.101 151.33L393.882 163.03L399.125 153.79L410.057 153.9L416.304 156.79L410.503 166.37L409.834 175.28L417.977 160.02L430.918 158.13L417.308 174.28L419.316 177.18L411.284 194.33L417.197 193.66L423.109 178.18L447.093 168.6L449.324 164.37L465.165 171.5L456.687 180.85L462.599 179.07L463.603 182.64L456.687 196.67L445.308 196.34L446.758 199.57L442.854 203.35L466.838 204.58L447.428 210.82L464.049 214.38L463.938 225.97L458.025 228.31L453.006 237.78L434.599 242.9L428.464 248.25L437.165 245.91L446.982 248.14L449.994 243.01L461.93 241.56L461.261 234.66L465.053 232.65L471.523 217.39L469.85 207.25L474.535 201.24L469.292 203.35L470.631 193.66L484.018 192.55L485.245 195.56L490.822 191.32L496.846 193.22L500.862 190.1L511.683 193.55L536.337 193.89L537.564 199.9L544.592 203.47L576.608 210.93L578.058 216.72L582.966 212.16L594.122 214.72L597.357 219.51L601.15 216.83L604.831 219.28L607.062 215.94L597.58 205.25H608.401L614.424 210.6L625.134 210.82L647.445 221.07L650.456 218.28L658.154 228.08L666.855 231.65L669.867 228.98L672.99 234.66L687.827 237.66L693.07 251.37L694.743 248.02L697.532 253.26L699.317 251.48L710.919 257.05L746.17 288.79L759.78 295.81L763.01 302.72L768.48 304.5L769.26 309.4L774.84 308.96L779.75 317.76L788.11 319.43L799.27 329.56L823.7 355.3L835.41 376.01L838.09 375.01L851.14 387.6L867.32 410.88L871.45 412.11L876.35 397.96L887.4 412.66L896.43 413.22L897.1 419.23L911.38 435.05L910.82 439.51L917.96 436.61L957.23 474.82L954.44 468.25L957.12 465.57L962.92 470.92L972.29 469.81L964.93 442.63L978.09 463.01L983.45 479.94L986.46 481.5L987.46 478.72L997.06 490.86L1015.91 502.33L1015.35 513.03L1010 508.91L1006.98 511.58L1017.69 528.4L1020.93 527.29L1025.95 534.3L1030.86 527.62L1029.29 521.05L1033.87 520.6L1035.43 523.94L1036.77 519.93L1046.81 535.97L1056.4 534.86L1061.76 539.76L1067.89 556.25L1062.65 571.06L1065.33 580.87L1062.54 589.89L1070.9 595.35L1073.58 602.14L1070.57 632.89L1075.03 639.79L1084.18 644.81L1089.31 640.68L1091.88 645.14L1087.97 656.39L1095 662.41L1090.43 669.53L1091.43 689.25L1084.85 689.92L1087.64 696.49L1080.61 722.67L1041.34 771.24L1039.78 781.04L1032.08 785.05L1030.63 794.18L1021.93 804.77L1001.85 817.13L984 836.4L941.84 850.33L913.06 867.59L896.1 866.7L878.47 875.28L849.8 877.17L835.19 872.05L817.79 870.82L798.71 864.81L772.5 847.32L734.57 831.5L703.891 830.05L626.026 810.22L613.42 803.87L610.52 794.3L601.261 794.07L578.392 769.9L570.695 767.23L561.325 768.79L554.185 777.25L543.03 779.37L536.225 769.79L536.113 757.2L508.225 749.07L501.42 750.41L498.073 748.18L497.069 740.83L494.057 743.72L490.265 739.04L491.826 734.14L477.213 726.12L474.424 717.43L474.312 728.91L470.631 726.9L473.42 739.82L465.723 743.95L439.619 722.34L423.555 706.41L407.714 682.46L407.603 674.44L421.436 667.86L405.372 670.43L394.774 661.74L385.181 664.41L379.38 661.85L373.244 654.16L366.663 659.73L356.734 657.39L353.388 664.41L338.886 657.73L353.945 668.98L360.192 666.08L358.631 660.96L366.663 664.19L373.133 669.76L367.555 671.21L371.682 676.78L378.264 676.55L386.408 681.23L389.308 702.95L377.93 710.64H388.304L401.579 723.45L401.021 727.46L408.607 734.14L400.575 736.26L402.695 738.6L428.91 751.41L445.754 753.64L450.44 758.65L449.324 763.77L444.862 758.76L435.045 756.98L430.695 768.9L412.065 763.44L412.511 768.67L391.204 765.78L387.969 768.12L384.734 787.95L367.332 789.84L380.607 801.42L368.336 797.08L370.567 807.55L368.113 811.23L333.196 810L324.272 786.94L312.893 781.93L311.443 760.99L293.148 759.87L293.929 755.98L271.061 758.98L239.268 756.76L228.112 760.77L195.65 763.88L168.542 761.99L138.534 769.01L112.319 721L108.526 693.26L148.574 622.97L157.052 616.85L157.164 611.72L182.04 578.53L188.176 545.67L160.845 520.49L132.956 461.23L78.072 435.05L61.339 358.75L83.092 317.2L89.562 286.79L64.574 284.56L60 279.33L99.379 246.13L108.08 255.15L116.223 248.14L126.04 232.21L130.168 218.28L130.614 191.1L145.451 185.31L149.801 188.65L171.777 164.81L184.271 166.04L194.2 154.79L201.005 133.29L194.646 108.56L200.893 108.23L214.503 119.48L227.331 136.52L250.758 136.74L260.798 126.61L259.682 103.55L255.666 98.6499L257.005 92.3L252.654 80.6001L259.905 86.1699L266.487 82.6001L268.606 86.6201L273.626 85.28L299.395 99.4299V109.12L285.674 129.5L291.252 126.27L296.606 115.35L301.738 113.35L303.634 104.33L322.375 107.33L329.515 112.35L329.738 108.34L320.367 98.4199L324.049 74.5801L327.73 70.3501L333.866 73.9199L348.145 89.51L348.368 84.5L352.495 85.3899L347.141 71.02L340.782 64.6699L344.017 60.21L336.878 52.0801L338.328 43.1699L344.24 43.73L343.125 47.8501Z" fill="black"/>
</mask>
<g mask="url(#mask1_39_722)">
<path d="M343.125 47.8501L350.264 44.51L360.639 49.3L365.212 57.21L371.794 58.54L387.3 71.5801L386.296 79.3701L398.79 83.3799L401.691 79.8201L419.539 83.6101L421.436 87.8401L432.033 90.6299L434.599 94.97L432.591 113.46L421.993 127.94L413.404 132.17L386.519 123.93L380.607 117.36L375.81 119.92L360.862 117.03L358.408 109.67L361.977 103.66L356.176 90.6299L352.718 93.4099L357.404 99.4299L353.722 111.57L349.148 116.25L342.232 116.91L349.929 124.15L346.36 135.85L356.176 125.38L366.439 131.51L378.264 133.18L380.83 135.96L377.372 142.87L386.296 145.21L386.408 150.11L378.487 153.12L366.328 167.15L379.157 162.7L381.388 153.9L386.184 155.01L388.75 150L389.531 153.12L393.101 151.33L393.882 163.03L399.125 153.79L410.057 153.9L416.304 156.79L410.503 166.37L409.834 175.28L417.977 160.02L430.918 158.13L417.308 174.28L419.316 177.18L411.284 194.33L417.197 193.66L423.109 178.18L447.093 168.6L449.324 164.37L465.165 171.5L456.687 180.85L462.599 179.07L463.603 182.64L456.687 196.67L445.308 196.34L446.758 199.57L442.854 203.35L466.838 204.58L447.428 210.82L464.049 214.38L463.938 225.97L458.025 228.31L453.006 237.78L434.599 242.9L428.464 248.25L437.165 245.91L446.982 248.14L449.994 243.01L461.93 241.56L461.261 234.66L465.053 232.65L471.523 217.39L469.85 207.25L474.535 201.24L469.292 203.35L470.631 193.66L484.018 192.55L485.245 195.56L490.822 191.32L496.846 193.22L500.862 190.1L511.683 193.55L536.337 193.89L537.564 199.9L544.592 203.47L576.608 210.93L578.058 216.72L582.966 212.16L594.122 214.72L597.357 219.51L601.15 216.83L604.831 219.28L607.062 215.94L597.58 205.25H608.401L614.424 210.6L625.134 210.82L647.445 221.07L650.456 218.28L658.154 228.08L666.855 231.65L669.867 228.98L672.99 234.66L687.827 237.66L693.07 251.37L694.743 248.02L697.532 253.26L699.317 251.48L710.919 257.05L746.17 288.79L759.78 295.81L763.01 302.72L768.48 304.5L769.26 309.4L774.84 308.96L779.75 317.76L788.11 319.43L799.27 329.56L823.7 355.3L835.41 376.01L838.09 375.01L851.14 387.6L867.32 410.88L871.45 412.11L876.35 397.96L887.4 412.66L896.43 413.22L897.1 419.23L911.38 435.05L910.82 439.51L917.96 436.61L957.23 474.82L954.44 468.25L957.12 465.57L962.92 470.92L972.29 469.81L964.93 442.63L978.09 463.01L983.45 479.94L986.46 481.5L987.46 478.72L997.06 490.86L1015.91 502.33L1015.35 513.03L1010 508.91L1006.98 511.58L1017.69 528.4L1020.93 527.29L1025.95 534.3L1030.86 527.62L1029.29 521.05L1033.87 520.6L1035.43 523.94L1036.77 519.93L1046.81 535.97L1056.4 534.86L1061.76 539.76L1067.89 556.25L1062.65 571.06L1065.33 580.87L1062.54 589.89L1070.9 595.35L1073.58 602.14L1070.57 632.89L1075.03 639.79L1084.18 644.81L1089.31 640.68L1091.88 645.14L1087.97 656.39L1095 662.41L1090.43 669.53L1091.43 689.25L1084.85 689.92L1087.64 696.49L1080.61 722.67L1041.34 771.24L1039.78 781.04L1032.08 785.05L1030.63 794.18L1021.93 804.77L1001.85 817.13L984 836.4L941.84 850.33L913.06 867.59L896.1 866.7L878.47 875.28L849.8 877.17L835.19 872.05L817.79 870.82L798.71 864.81L772.5 847.32L734.57 831.5L703.891 830.05L626.026 810.22L613.42 803.87L610.52 794.3L601.261 794.07L578.392 769.9L570.695 767.23L561.325 768.79L554.185 777.25L543.03 779.37L536.225 769.79L536.113 757.2L508.225 749.07L501.42 750.41L498.073 748.18L497.069 740.83L494.057 743.72L490.265 739.04L491.826 734.14L477.213 726.12L474.424 717.43L474.312 728.91L470.631 726.9L473.42 739.82L465.723 743.95L439.619 722.34L423.555 706.41L407.714 682.46L407.603 674.44L421.436 667.86L405.372 670.43L394.774 661.74L385.181 664.41L379.38 661.85L373.244 654.16L366.663 659.73L356.734 657.39L353.388 664.41L338.886 657.73L353.945 668.98L360.192 666.08L358.631 660.96L366.663 664.19L373.133 669.76L367.555 671.21L371.682 676.78L378.264 676.55L386.408 681.23L389.308 702.95L377.93 710.64H388.304L401.579 723.45L401.021 727.46L408.607 734.14L400.575 736.26L402.695 738.6L428.91 751.41L445.754 753.64L450.44 758.65L449.324 763.77L444.862 758.76L435.045 756.98L430.695 768.9L412.065 763.44L412.511 768.67L391.204 765.78L387.969 768.12L384.734 787.95L367.332 789.84L380.607 801.42L368.336 797.08L370.567 807.55L368.113 811.23L333.196 810L324.272 786.94L312.893 781.93L311.443 760.99L293.148 759.87L293.929 755.98L271.061 758.98L239.268 756.76L228.112 760.77L195.65 763.88L168.542 761.99L138.534 769.01L112.319 721L108.526 693.26L148.574 622.97L157.052 616.85L157.164 611.72L182.04 578.53L188.176 545.67L160.845 520.49L132.956 461.23L78.072 435.05L61.339 358.75L83.092 317.2L89.562 286.79L64.574 284.56L60 279.33L99.379 246.13L108.08 255.15L116.223 248.14L126.04 232.21L130.168 218.28L130.614 191.1L145.451 185.31L149.801 188.65L171.777 164.81L184.271 166.04L194.2 154.79L201.005 133.29L194.646 108.56L200.893 108.23L214.503 119.48L227.331 136.52L250.758 136.74L260.798 126.61L259.682 103.55L255.666 98.6499L257.005 92.3L252.654 80.6001L259.905 86.1699L266.487 82.6001L268.606 86.6201L273.626 85.28L299.395 99.4299V109.12L285.674 129.5L291.252 126.27L296.606 115.35L301.738 113.35L303.634 104.33L322.375 107.33L329.515 112.35L329.738 108.34L320.367 98.4199L324.049 74.5801L327.73 70.3501L333.866 73.9199L348.145 89.51L348.368 84.5L352.495 85.3899L347.141 71.02L340.782 64.6699L344.017 60.21L336.878 52.0801L338.328 43.1699L344.24 43.73L343.125 47.8501Z" stroke="#F1E2D2" stroke-opacity="0.16" stroke-width="4"/>
</g>
</g>
<path d="M510 674.17C513.314 674.17 516 671.484 516 668.17C516 664.856 513.314 662.17 510 662.17C506.686 662.17 504 664.856 504 668.17C504 671.484 506.686 674.17 510 674.17Z" fill="#DE4300" stroke="#F1E2D2" stroke-width="4"/>
<path d="M434.5 2159.67V2135.17C434.5 2119.84 434.5 2087.57 434.5 2081.17C434.5 2074.77 392.167 2049.17 371 2037.17C342 2015.84 284.6 1971.17 287 1963.17C289.35 1955.34 341.726 1918.76 369.26 1900.33C370.426 1899.55 371.673 1898.94 373.002 1898.5L450.011 1872.51C451.659 1871.96 453.387 1871.67 455.127 1871.67H517.129C521.807 1871.67 526.25 1873.72 529.29 1877.27L579.305 1935.77C580.099 1936.7 580.784 1937.72 581.347 1938.8L636.953 2045.98C640.238 2052.31 647.316 2055.7 654.309 2054.3L727.34 2039.62C734.5 2038.18 739.79 2032.08 739.99 2024.78C740.26 2015.34 740.3 2004.47 739.5 1999.17C738 1989.17 775.5 1937.17 778.5 1925.67C780.78 1916.91 817.38 1914.41 838 1914.19C839.99 1914.17 841.94 1914.54 843.8 1915.26C869.99 1925.29 920.96 1942.19 936 1937.17C955.5 1930.67 1008 1925.67 1019.5 1914.17C1027.9 1905.77 1053.32 1895.9 1068.09 1890.95C1070.65 1890.09 1073.39 1889.95 1076.04 1890.48L1119.5 1899.17C1156 1909 1229 1928.07 1229 1925.67C1229 1922.67 1281.5 1843.67 1281.5 1824.17C1281.5 1810.32 1261.79 1761.54 1248.62 1731.18C1245.89 1724.88 1247.4 1717.54 1252.45 1712.88L1323.24 1647.6C1325.99 1645.06 1327.77 1641.64 1328.26 1637.93L1341.29 1539.55C1341.75 1536.06 1343.35 1532.82 1345.84 1530.34L1354.78 1521.39C1360.58 1515.59 1361.05 1506.34 1356.01 1499.86C1343.26 1483.43 1327.5 1461.52 1327.5 1455.17C1327.5 1445.17 1255.5 1422.67 1229 1416.17C1202.5 1409.67 1119.5 1388.17 1113 1376.67C1108.76 1369.16 1106.22 1336.5 1105.07 1312.6C1104.68 1304.41 1110.69 1297.35 1118.82 1296.27L1213.93 1283.67C1222.38 1282.55 1228.47 1275.02 1227.61 1266.55C1225.28 1243.74 1221.11 1211.9 1216 1198.17C1209.69 1181.22 1262.14 1168.37 1290.3 1163.86C1291.11 1163.73 1291.91 1163.67 1292.74 1163.67H1455.92C1458.6 1163.67 1461.23 1163 1463.58 1161.72L1572.15 1102.58C1578.54 1099.1 1581.78 1091.75 1580.01 1084.69C1570 1044.73 1553.61 981.45 1550 975.67C1546.41 969.93 1486.41 938.77 1447.77 919.31C1440.71 915.76 1432.14 917.94 1427.59 924.4L1405.83 955.28C1404.95 956.54 1403.89 957.66 1402.69 958.61L1338.72 1009.28C1332.33 1014.34 1323.16 1013.8 1317.42 1008.01L1273.45 963.67C1269.45 959.64 1267.87 953.81 1269.41 948.35C1273.04 935.47 1278.32 918.26 1281.5 913.17C1286.5 905.17 1275 877.17 1267 851.17C1259 825.17 1232.5 837.67 1203 828.17C1173.5 818.67 1157 837.67 1142.5 837.67C1131.51 837.67 1099.63 794.62 1082.7 769.68C1080.92 767.06 1080 763.99 1080 760.83V727.16C1080 722.41 1077.89 717.91 1074.25 714.87L1029.59 677.6C1023.73 672.7 1015.22 672.64 1009.28 677.44L979.4 701.61C976.55 703.91 973 705.17 969.34 705.17H940.5C931.66 705.17 924.5 698.01 924.5 689.17C924.5 676.75 924.5 662.15 924.5 654.17C924.5 639.17 839.5 631.67 831 631.67C822.5 631.67 757.5 660.67 751 669.17C746.2 675.45 685.14 657.52 648.23 645.54C642.807 643.78 638.788 639.24 637.631 633.65L628.881 591.43C628.304 588.64 626.995 586.06 625.088 583.95L586.423 541.14C579.236 533.18 566.411 534.41 560.86 543.58L532.306 590.77C527.922 598.02 518.652 600.59 511.159 596.64L380.547 527.83C377.283 526.11 374.713 523.32 373.274 519.92L356 479.17L325.196 426.49C322.849 422.48 318.884 419.69 314.314 418.84C291.865 414.65 254.823 407.68 243 405.17C230.855 402.6 220.601 388.25 216.054 379.75C215.324 378.38 214.877 376.9 214.635 375.37L203.586 305.68C202.618 299.57 205.257 293.45 210.365 289.96L239.92 269.78C241.946 268.39 244.263 267.49 246.693 267.15L334.5 254.67H431.5L581.654 275.23C586.023 275.83 590.445 274.6 593.876 271.83L653.681 223.54C655.214 222.31 656.505 220.8 657.489 219.09L676.385 186.34C677.771 183.93 679.758 181.93 682.151 180.53L768.61 129.83C772.08 127.8 776.17 127.15 780.11 127.97C802.53 132.63 841.3 139.63 855.5 138.17C871.1 136.57 884 115.84 888.5 105.67C891.67 99.1699 896.1 84.4699 888.5 77.6699C883.49 73.1899 874.16 73.3801 866.13 74.8501C859.61 76.0401 852.64 74.3601 848.3 69.3301L824.48 41.73C818.89 35.26 819.37 25.5599 825.57 19.6699C849.54 -3.08008 884.05 -35.8801 888.5 -40.3301C895 -46.8301 954 -10.8301 964 7.16992C972 21.5699 997.33 13.1699 1009 7.16992L1031.39 -7.98999C1042.14 -15.27 1040.2 -31.64 1028.05 -36.21L1000.14 -46.7C992.41 -49.61 988.16 -57.9199 990.33 -65.8899L1007.12 -127.42C1008.31 -131.81 1007.58 -136.51 1005.1 -140.34L951.75 -222.57C946.74 -230.3 936.26 -232.22 928.87 -226.7C890.3 -197.9 831.61 -152.84 827 -144.33C822.69 -136.36 810.73 -144.37 802.5 -151.89C799.5 -154.63 798 -158.59 798 -162.66V-216.07C798 -218.22 797.57 -220.35 796.73 -222.33L778.14 -266.08C775.63 -271.99 769.83 -275.83 763.41 -275.83H695.437C694.481 -275.83 693.527 -275.74 692.586 -275.57L643.977 -266.77C638.963 -265.86 633.815 -267.4 630.117 -270.91L610.425 -289.58C608.189 -291.7 606.613 -294.42 605.886 -297.41L593.823 -347.09C591.72 -355.75 582.945 -361.02 574.211 -359.23C559.182 -356.16 540.088 -353.2 528.5 -354.33C515.787 -355.57 499.45 -358.69 488.476 -361.04C483.454 -362.12 479.333 -365.64 477.363 -370.38L467.861 -393.26C467.293 -394.62 467 -396.09 467 -397.57C467 -403.79 472.039 -408.83 478.255 -408.83H510.61C518.557 -408.83 525 -415.27 525 -423.22C525 -427.98 522.645 -432.43 518.71 -435.11L475.617 -464.46C470.379 -468.03 463.53 -468.17 458.151 -464.82L445.198 -456.75C439.897 -453.44 433.158 -453.53 427.94 -456.96L387.005 -483.91C380.84 -487.97 372.699 -487.29 367.299 -482.25L364.635 -479.77C358.817 -474.35 349.901 -474.03 343.703 -479.01L334.975 -486.02C331.197 -489.06 329 -493.65 329 -498.49V-543.11C329 -545.56 329.56 -547.97 330.637 -550.16L339.964 -569.16C341.603 -572.5 344.355 -575.17 347.745 -576.7L397.843 -599.31C398.613 -599.65 399.41 -599.94 400.225 -600.16L460.024 -616.43C464.459 -617.64 468.161 -620.69 470.186 -624.82L471.519 -627.53C476.091 -636.85 470.728 -647.98 460.597 -650.21L432.429 -656.41C428.31 -657.32 424.717 -659.82 422.429 -663.36L416.384 -672.72C412.831 -678.22 412.989 -685.33 416.783 -690.67L519.63 -835.37C523.467 -840.76 523.581 -847.97 519.916 -853.49L489.968 -898.57C484.845 -906.29 487.319 -916.72 495.358 -921.32L550.5 -952.83L613.749 -999C617.116 -1001.45 619.391 -1005.13 620.09 -1009.24L633.736 -1089.51C635.043 -1097.2 641.708 -1102.83 649.51 -1102.83H749.86C751.28 -1102.83 752.7 -1103.02 754.07 -1103.39L853.11 -1130.4C855.34 -1131.01 857.42 -1132.1 859.19 -1133.59L955.11 -1214.22C958.25 -1216.86 960.26 -1220.6 960.72 -1224.67L968.35 -1292.27C969.29 -1300.51 976.36 -1306.67 984.65 -1306.47L1062.35 -1304.56C1075.07 -1304.24 1083.05 -1318.2 1076.32 -1329.01L1031.91 -1400.34C1028.36 -1406.04 1028.74 -1413.35 1032.87 -1418.64L1066.95 -1462.35C1067.98 -1463.66 1068.79 -1465.13 1069.36 -1466.69L1085.5 -1510.83" stroke="#F1E2D2" stroke-opacity="0.16" stroke-dasharray="4 6"/>
<path d="M1217 883.17C1220.31 883.17 1223 880.484 1223 877.17C1223 873.856 1220.31 871.17 1217 871.17C1213.69 871.17 1211 873.856 1211 877.17C1211 880.484 1213.69 883.17 1217 883.17Z" fill="#DE4300" stroke="#F1E2D2" stroke-width="4"/>
</g>
<defs>
<filter id="filter0_g_39_722" x="33.9029" y="17.7515" width="1086.97" height="884.692" filterUnits="userSpaceOnUse" color-interpolation-filters="sRGB">
<feFlood flood-opacity="0" result="BackgroundImageFix"/>
<feBlend mode="normal" in="SourceGraphic" in2="BackgroundImageFix" result="shape"/>
<feTurbulence type="fractalNoise" baseFrequency="0.028672659769654274 0.028672659769654274" numOctaves="3" seed="5470" />
<feDisplacementMap in="shape" scale="46.501907348632812" xChannelSelector="R" yChannelSelector="G" result="displacedImage" width="100%" height="100%" />
<feMerge result="effect1_texture_39_722">
<feMergeNode in="displacedImage"/>
</feMerge>
</filter>
<filter id="filter1_g_39_722" x="33.9029" y="17.7515" width="1086.97" height="884.692" filterUnits="userSpaceOnUse" color-interpolation-filters="sRGB">
<feFlood flood-opacity="0" result="BackgroundImageFix"/>
<feBlend mode="normal" in="SourceGraphic" in2="BackgroundImageFix" result="shape"/>
<feTurbulence type="fractalNoise" baseFrequency="0.028672659769654274 0.028672659769654274" numOctaves="3" seed="5470" />
<feDisplacementMap in="shape" scale="46.501907348632812" xChannelSelector="R" yChannelSelector="G" result="displacedImage" width="100%" height="100%" />
<feMerge result="effect1_texture_39_722">
<feMergeNode in="displacedImage"/>
</feMerge>
</filter>
<clipPath id="clip0_39_722">
<rect width="1333" height="1351" fill="white"/>
</clipPath>
</defs>
</svg>
